<?xml version="1.0" standalone="no"?>
<!DOCTYPE svg PUBLIC "-//W3C//DTD SVG 20010904//EN"
 "http://www.w3.org/TR/2001/REC-SVG-20010904/DTD/svg10.dtd">
<svg version="1.0" xmlns="http://www.w3.org/2000/svg"
 width="477.000000pt" height="596.000000pt" viewBox="0 0 477.000000 596.000000"
 preserveAspectRatio="xMidYMid meet">

<g transform="translate(0.000000,596.000000) scale(0.100000,-0.100000)"
fill="#000000" stroke="none">
<path d="M0 5895 l0 -65 25 16 c28 19 32 45 9 65 -8 7 -13 21 -11 31 3 11 0
18 -9 18 -11 0 -14 -16 -14 -65z"/>
<path d="M93 5949 c14 -8 22 -8 30 0 8 8 3 11 -18 11 -26 -1 -28 -2 -12 -11z"/>
<path d="M160 5951 c1 -20 19 -32 36 -23 11 5 52 8 92 7 54 -1 72 2 72 12 0
10 -22 13 -100 12 -55 0 -100 -4 -100 -8z"/>
<path d="M655 5950 c4 -6 11 -8 16 -5 14 9 11 15 -7 15 -8 0 -12 -5 -9 -10z"/>
<path d="M732 5935 c2 -14 8 -26 13 -26 6 0 11 12 13 26 2 18 -1 25 -13 25
-12 0 -15 -7 -13 -25z"/>
<path d="M796 5945 c-9 -26 -7 -32 5 -12 6 10 9 21 6 23 -2 3 -7 -2 -11 -11z"/>
<path d="M1800 5950 c0 -13 11 -13 30 0 12 8 11 10 -7 10 -13 0 -23 -4 -23
-10z"/>
<path d="M1928 5953 c7 -3 16 -2 19 1 4 3 -2 6 -13 5 -11 0 -14 -3 -6 -6z"/>
<path d="M2264 5945 c21 -16 32 -13 21 4 -3 6 -14 11 -23 11 -15 -1 -15 -2 2
-15z"/>
<path d="M2500 5951 c0 -6 5 -13 10 -16 6 -3 10 1 10 9 0 9 -4 16 -10 16 -5 0
-10 -4 -10 -9z"/>
<path d="M2533 5931 c-18 -15 -33 -31 -33 -34 0 -12 48 -8 56 5 5 8 14 63 9
58 0 -1 -15 -13 -32 -29z"/>
<path d="M2770 5950 c-12 -7 -10 -11 10 -18 33 -12 55 -5 39 14 -13 16 -28 17
-49 4z"/>
<path d="M3080 5950 c0 -5 5 -10 10 -10 6 0 10 5 10 10 0 6 -4 10 -10 10 -5 0
-10 -4 -10 -10z"/>
<path d="M3380 5950 c-10 -6 -12 -12 -4 -20 7 -7 16 -5 29 10 14 15 15 20 4
20 -8 0 -21 -5 -29 -10z"/>
<path d="M3768 5953 c7 -3 16 -2 19 1 4 3 -2 6 -13 5 -11 0 -14 -3 -6 -6z"/>
<path d="M3850 5945 c0 -19 20 -19 56 0 l29 15 -42 0 c-32 0 -43 -4 -43 -15z"/>
<path d="M4071 5948 c-1 -22 18 -33 32 -19 8 8 7 11 -5 11 -9 0 -19 6 -21 13
-3 7 -6 6 -6 -5z"/>
<path d="M4152 5953 c-16 -6 3 -33 25 -33 8 0 28 -7 45 -16 24 -12 29 -21 25
-40 -2 -13 1 -28 7 -33 13 -11 66 -3 66 10 0 5 9 9 20 9 11 0 20 5 20 11 0 6
9 22 19 35 11 14 17 33 14 44 -5 19 -14 20 -117 19 -61 0 -117 -3 -124 -6z"/>
<path d="M4642 5938 c2 -15 11 -24 26 -26 27 -4 28 2 2 28 -26 26 -32 25 -28
-2z"/>
<path d="M4740 5950 c19 -13 30 -13 30 0 0 6 -10 10 -22 10 -19 0 -20 -2 -8
-10z"/>
<path d="M4500 5945 c0 -2 14 -18 30 -35 28 -29 30 -29 30 -9 0 12 -8 28 -17
35 -18 13 -43 19 -43 9z"/>
<path d="M545 5930 c3 -5 8 -10 11 -10 2 0 4 5 4 10 0 6 -5 10 -11 10 -5 0 -7
-4 -4 -10z"/>
<path d="M1667 5933 c-3 -5 1 -14 9 -21 12 -10 14 -10 14 2 0 17 -16 30 -23
19z"/>
<path d="M2178 5933 c7 -3 16 -2 19 1 4 3 -2 6 -13 5 -11 0 -14 -3 -6 -6z"/>
<path d="M420 5905 c0 -16 6 -25 15 -25 16 0 19 9 9 34 -9 25 -24 19 -24 -9z"/>
<path d="M1718 5903 c-47 -32 -53 -67 -10 -52 44 16 76 44 69 63 -8 21 -15 20
-59 -11z"/>
<path d="M698 5913 c7 -3 16 -2 19 1 4 3 -2 6 -13 5 -11 0 -14 -3 -6 -6z"/>
<path d="M1895 5911 c-7 -13 27 -31 57 -31 13 0 28 8 35 19 10 17 9 17 -28 11
-21 -4 -36 -3 -33 1 3 5 -2 9 -10 9 -8 0 -17 -4 -21 -9z"/>
<path d="M2250 5910 c-8 -5 -12 -10 -10 -12 37 -24 53 -29 63 -19 8 8 7 11 -2
11 -8 0 -19 7 -25 15 -7 10 -16 12 -26 5z"/>
<path d="M2891 5911 c-19 -13 22 -25 52 -15 21 7 21 7 2 15 -27 10 -37 10 -54
0z"/>
<path d="M3800 5894 c0 -14 5 -24 11 -22 6 2 10 7 10 11 -1 4 -1 14 -1 22 0 8
-4 15 -10 15 -5 0 -10 -12 -10 -26z"/>
<path d="M4723 5900 c-10 -11 -23 -20 -30 -20 -7 0 -13 -9 -13 -20 0 -11 7
-20 15 -20 8 0 15 4 15 8 0 4 12 8 27 7 22 0 27 5 30 33 5 38 -17 44 -44 12z"/>
<path d="M890 5895 c0 -8 5 -15 10 -15 6 0 10 7 10 15 0 8 -4 15 -10 15 -5 0
-10 -7 -10 -15z"/>
<path d="M950 5900 c-10 -6 -12 -12 -5 -19 7 -7 14 -4 23 9 13 21 6 25 -18 10z"/>
<path d="M2730 5900 c-8 -5 -11 -12 -7 -16 4 -4 2 -13 -3 -19 -18 -22 14 -24
39 -4 37 30 12 65 -29 39z"/>
<path d="M1175 5890 c3 -5 10 -10 16 -10 5 0 9 5 9 10 0 6 -7 10 -16 10 -8 0
-12 -4 -9 -10z"/>
<path d="M2581 5887 c-14 -17 -4 -27 25 -27 28 0 42 19 23 31 -20 12 -35 11
-48 -4z"/>
<path d="M3250 5890 c0 -5 5 -10 11 -10 5 0 7 5 4 10 -3 6 -8 10 -11 10 -2 0
-4 -4 -4 -10z"/>
<path d="M4105 5890 c-3 -5 -1 -10 4 -10 6 0 11 5 11 10 0 6 -2 10 -4 10 -3 0
-8 -4 -11 -10z"/>
<path d="M207 5871 c3 -13 -2 -23 -16 -30 -12 -7 -21 -18 -21 -26 0 -9 -10
-15 -25 -15 -16 0 -25 -6 -25 -15 0 -9 9 -15 23 -15 17 0 29 10 43 35 14 26
23 33 39 29 18 -4 21 -1 20 23 0 21 -5 29 -22 31 -17 3 -20 -1 -16 -17z"/>
<path d="M287 5883 c-10 -9 -9 -23 2 -23 5 0 11 7 15 15 5 15 -5 20 -17 8z"/>
<path d="M4615 5880 l-30 -8 27 -1 c15 0 30 4 33 9 3 6 5 9 3 9 -2 -1 -16 -5
-33 -9z"/>
<path d="M826 5864 c-9 -22 -8 -24 9 -24 8 0 15 9 15 20 0 24 -15 27 -24 4z"/>
<path d="M4182 5860 c0 -14 2 -19 5 -12 2 6 2 18 0 25 -3 6 -5 1 -5 -13z"/>
<path d="M860 5856 c0 -8 7 -16 15 -20 8 -3 15 -15 15 -26 0 -11 7 -23 15 -27
26 -9 30 6 8 30 -11 12 -23 30 -26 40 -8 20 -27 23 -27 3z"/>
<path d="M1992 5850 c-7 -11 -10 -20 -6 -20 7 0 34 27 34 34 0 13 -16 5 -28
-14z"/>
<path d="M353 5845 c-17 -19 -16 -25 2 -25 8 0 15 2 15 4 0 2 3 11 6 20 8 20
-7 20 -23 1z"/>
<path d="M670 5850 c0 -5 4 -10 9 -10 6 0 13 5 16 10 3 6 -1 10 -9 10 -9 0
-16 -4 -16 -10z"/>
<path d="M1475 5850 c4 -6 11 -8 16 -5 14 9 11 15 -7 15 -8 0 -12 -5 -9 -10z"/>
<path d="M2080 5850 c0 -5 7 -10 15 -10 8 0 15 5 15 10 0 6 -7 10 -15 10 -8 0
-15 -4 -15 -10z"/>
<path d="M4020 5850 c0 -5 5 -10 11 -10 5 0 7 5 4 10 -3 6 -8 10 -11 10 -2 0
-4 -4 -4 -10z"/>
<path d="M76 5835 c-8 -22 3 -45 20 -38 18 7 18 27 0 42 -10 9 -15 8 -20 -4z"/>
<path d="M2452 5843 c-6 -2 -10 -9 -6 -14 8 -14 31 -11 38 6 5 15 -7 18 -32 8z"/>
<path d="M4130 5834 c0 -9 5 -14 12 -12 18 6 21 28 4 28 -9 0 -16 -7 -16 -16z"/>
<path d="M790 5830 c-9 -6 -10 -10 -3 -10 6 0 15 5 18 10 8 12 4 12 -15 0z"/>
<path d="M1305 5830 c3 -5 11 -10 16 -10 6 0 7 5 4 10 -3 6 -11 10 -16 10 -6
0 -7 -4 -4 -10z"/>
<path d="M480 5819 c0 -5 5 -7 10 -4 6 3 10 8 10 11 0 2 -4 4 -10 4 -5 0 -10
-5 -10 -11z"/>
<path d="M855 5820 c3 -5 11 -10 16 -10 6 0 7 5 4 10 -3 6 -11 10 -16 10 -6 0
-7 -4 -4 -10z"/>
<path d="M4465 5820 c-3 -5 1 -10 9 -10 9 0 16 5 16 10 0 6 -4 10 -9 10 -6 0
-13 -4 -16 -10z"/>
<path d="M2210 5810 c0 -5 7 -10 15 -10 8 0 15 5 15 10 0 6 -7 10 -15 10 -8 0
-15 -4 -15 -10z"/>
<path d="M3801 5801 c-10 -6 -9 -10 3 -14 8 -3 18 -2 21 3 8 13 -9 20 -24 11z"/>
<path d="M4354 5785 c-8 -21 6 -41 17 -24 12 19 11 39 -1 39 -6 0 -13 -7 -16
-15z"/>
<path d="M290 5770 c-12 -8 -11 -10 8 -10 12 0 22 5 22 10 0 13 -11 13 -30 0z"/>
<path d="M4220 5771 c0 -17 18 -21 24 -6 3 9 0 15 -9 15 -8 0 -15 -4 -15 -9z"/>
<path d="M2550 5754 c0 -8 5 -12 10 -9 6 3 10 10 10 16 0 5 -4 9 -10 9 -5 0
-10 -7 -10 -16z"/>
<path d="M52 5738 c9 -7 18 -20 21 -28 3 -8 6 -3 6 13 1 21 -3 27 -21 27 -19
0 -20 -2 -6 -12z"/>
<path d="M1155 5740 c-3 -5 -3 -10 2 -11 4 0 24 -2 43 -4 33 -4 34 -4 16 10
-23 17 -52 20 -61 5z"/>
<path d="M4009 5740 c-11 -7 -10 -10 4 -16 10 -4 23 -2 28 3 14 14 -13 24 -32
13z"/>
<path d="M605 5730 c-3 -5 1 -10 10 -10 9 0 13 5 10 10 -3 6 -8 10 -10 10 -2
0 -7 -4 -10 -10z"/>
<path d="M1120 5730 c0 -5 5 -10 10 -10 6 0 10 5 10 10 0 6 -4 10 -10 10 -5 0
-10 -4 -10 -10z"/>
<path d="M1740 5731 c0 -5 7 -11 15 -15 9 -3 15 0 15 9 0 8 -7 15 -15 15 -8 0
-15 -4 -15 -9z"/>
<path d="M2286 5724 c-8 -21 -3 -26 18 -18 9 3 16 12 16 20 0 19 -26 18 -34
-2z"/>
<path d="M45 5710 c-3 -5 -15 -10 -26 -10 -10 0 -19 -6 -19 -14 0 -25 54 -13
58 13 4 22 -3 28 -13 11z"/>
<path d="M4101 5658 c-5 -13 -7 -25 -4 -28 5 -6 33 30 33 42 0 17 -21 7 -29
-14z"/>
<path d="M215 5643 c-31 -35 -32 -43 0 -43 21 0 25 5 25 31 0 16 4 28 9 24 5
-3 12 -1 16 5 14 22 -26 8 -50 -17z"/>
<path d="M495 5660 c-3 -5 -1 -10 4 -10 6 0 11 5 11 10 0 6 -2 10 -4 10 -3 0
-8 -4 -11 -10z"/>
<path d="M4007 5653 c-14 -13 -6 -23 18 -23 28 0 34 15 9 24 -19 7 -19 7 -27
-1z"/>
<path d="M495 5630 c3 -5 8 -10 11 -10 2 0 4 5 4 10 0 6 -5 10 -11 10 -5 0 -7
-4 -4 -10z"/>
<path d="M3650 5625 c0 -8 5 -15 10 -15 6 0 10 7 10 15 0 8 -4 15 -10 15 -5 0
-10 -7 -10 -15z"/>
<path d="M4180 5624 c-25 -13 -25 -14 -2 -14 12 0 22 4 22 9 0 5 8 12 18 14
11 3 12 5 2 5 -8 0 -26 -6 -40 -14z"/>
<path d="M946 5623 c-12 -12 -5 -23 14 -23 11 0 20 4 20 9 0 11 -26 22 -34 14z"/>
<path d="M2715 5620 c-3 -5 -17 -10 -31 -10 -28 0 -32 -15 -7 -24 11 -5 26 2
42 19 14 14 20 25 14 25 -7 0 -15 -4 -18 -10z"/>
<path d="M272 5608 c6 -18 28 -21 28 -4 0 9 -7 16 -16 16 -9 0 -14 -5 -12 -12z"/>
<path d="M394 5608 c-5 -7 -3 -8 6 -3 10 6 12 4 7 -8 -4 -12 -2 -14 11 -10 30
11 34 15 21 24 -19 12 -37 11 -45 -3z"/>
<path d="M1120 5610 c0 -5 5 -10 11 -10 5 0 7 5 4 10 -3 6 -8 10 -11 10 -2 0
-4 -4 -4 -10z"/>
<path d="M4631 5611 c-10 -6 -10 -10 -1 -16 13 -8 24 -1 19 14 -3 6 -10 7 -18
2z"/>
<path d="M1450 5590 c0 -5 5 -10 10 -10 6 0 10 5 10 10 0 6 -4 10 -10 10 -5 0
-10 -4 -10 -10z"/>
<path d="M1 5574 c0 -11 3 -14 6 -6 3 7 2 16 -1 19 -3 4 -6 -2 -5 -13z"/>
<path d="M2472 5560 c0 -17 4 -28 9 -25 11 8 12 55 1 55 -5 0 -9 -14 -10 -30z"/>
<path d="M3106 5575 c4 -8 8 -15 10 -15 2 0 4 7 4 15 0 8 -4 15 -10 15 -5 0
-7 -7 -4 -15z"/>
<path d="M4677 5584 c-4 -4 -4 -10 -1 -15 6 -10 34 0 34 12 0 10 -24 12 -33 3z"/>
<path d="M566 5565 c4 -8 7 -15 9 -15 2 0 5 7 9 15 3 9 0 15 -9 15 -9 0 -12
-6 -9 -15z"/>
<path d="M1065 5570 c-3 -5 -1 -10 4 -10 6 0 11 5 11 10 0 6 -2 10 -4 10 -3 0
-8 -4 -11 -10z"/>
<path d="M3990 5555 c0 -17 2 -18 24 -9 23 9 20 24 -4 24 -11 0 -20 -7 -20
-15z"/>
<path d="M4733 5563 c9 -2 23 -2 30 0 6 3 -1 5 -18 5 -16 0 -22 -2 -12 -5z"/>
<path d="M236 5534 c-9 -24 -7 -28 9 -14 17 14 20 30 6 30 -5 0 -12 -7 -15
-16z"/>
<path d="M331 5521 c-12 -8 -12 -12 -2 -25 19 -23 31 -20 31 9 0 27 -6 30 -29
16z"/>
<path d="M4650 5520 c-13 -9 -13 -11 0 -20 12 -7 9 -11 -16 -16 -25 -5 -31
-10 -27 -25 7 -25 20 -24 33 1 6 11 20 20 30 20 11 0 20 4 20 9 0 5 12 12 27
16 21 5 24 8 12 16 -19 12 -60 11 -79 -1z"/>
<path d="M111 5507 c-70 -15 -80 -37 -17 -37 24 0 48 5 52 11 3 6 19 9 35 5
31 -6 37 2 17 22 -14 14 -15 14 -87 -1z"/>
<path d="M2280 5493 c0 -24 -106 -65 -165 -65 -41 1 -151 -21 -178 -35 -15 -7
-31 -11 -36 -9 -5 3 -38 -10 -74 -29 -36 -19 -70 -35 -75 -35 -5 0 -41 -18
-80 -39 -39 -21 -74 -36 -78 -32 -4 3 -4 0 0 -6 4 -7 3 -13 -2 -13 -5 0 -25
-16 -45 -35 -20 -19 -39 -35 -42 -35 -4 0 -23 -16 -43 -35 -20 -19 -42 -35
-47 -35 -14 0 -49 -26 -89 -65 -17 -16 -46 -42 -63 -56 -18 -15 -50 -48 -72
-74 -37 -45 -48 -75 -70 -192 -4 -24 -14 -51 -22 -60 -23 -29 -37 -58 -48 -99
-13 -48 -56 -110 -66 -94 -3 5 -11 8 -16 5 -5 -4 -9 1 -9 9 0 9 -4 16 -9 16
-5 0 -16 3 -25 6 -10 4 -16 1 -16 -9 0 -10 7 -13 20 -10 11 3 20 0 20 -6 0 -6
-7 -11 -15 -11 -13 0 -13 -3 1 -19 9 -10 24 -16 34 -14 33 9 47 -35 49 -150 2
-106 2 -108 -18 -97 -12 6 -21 15 -21 20 0 5 -15 12 -34 16 -19 3 -42 15 -52
25 -9 10 -27 19 -40 19 -13 0 -29 6 -36 13 -7 8 -20 12 -29 10 -10 -3 -34 13
-61 40 -30 30 -56 46 -79 49 -42 7 -101 29 -114 44 -5 7 -21 14 -35 17 -14 3
-51 12 -83 21 -32 9 -69 16 -82 16 -13 0 -27 5 -30 10 -3 6 -13 10 -22 10 -9
0 -24 6 -32 13 -48 41 -170 59 -224 35 -24 -12 -27 -18 -27 -63 0 -47 3 -54
46 -95 25 -25 64 -70 87 -100 78 -103 120 -150 134 -150 7 0 13 -8 13 -19 0
-10 56 -75 128 -148 70 -71 166 -175 214 -230 87 -100 89 -102 261 -195 18 -9
51 -17 75 -18 53 0 161 -29 184 -48 10 -8 20 -23 24 -34 3 -11 13 -28 22 -38
54 -58 62 -69 62 -85 0 -24 31 -128 41 -139 5 -6 9 -15 9 -22 0 -7 16 -36 35
-66 27 -40 35 -62 33 -91 -1 -21 3 -41 9 -45 5 -4 15 -17 22 -29 6 -13 18 -23
25 -23 8 0 17 -11 20 -25 4 -14 15 -34 26 -45 11 -11 20 -29 20 -40 0 -12 7
-20 18 -20 14 0 17 -7 14 -46 -4 -38 0 -51 25 -82 16 -20 36 -49 46 -64 34
-54 87 -95 145 -112 31 -10 66 -21 77 -26 11 -5 38 -14 60 -21 22 -7 45 -19
50 -26 6 -8 17 -13 25 -11 9 2 14 -3 12 -11 -2 -10 5 -12 27 -8 26 5 37 -1 90
-49 52 -49 101 -121 101 -149 0 -5 -15 5 -32 22 -37 34 -146 115 -150 111 -3
-3 -74 17 -120 34 -16 6 -28 14 -28 19 0 5 -6 6 -14 3 -23 -9 -184 44 -195 64
-5 10 -43 30 -85 46 -102 39 -178 93 -192 136 -17 51 -33 57 -106 38 -70 -18
-273 -85 -300 -99 -10 -5 -33 -9 -53 -9 -30 0 -73 -12 -140 -40 -70 -30 -149
-42 -170 -26 -15 11 -16 15 -4 25 28 25 270 189 331 224 95 55 59 62 -52 10
-100 -46 -145 -66 -165 -73 -51 -18 -145 -68 -190 -102 -27 -21 -55 -38 -61
-38 -6 0 -18 -8 -27 -18 -9 -9 -41 -28 -71 -42 -31 -13 -59 -32 -62 -42 -3
-10 -17 -24 -32 -32 -15 -8 -36 -23 -46 -35 -11 -12 -24 -21 -31 -21 -30 0
-57 -55 -58 -122 0 -17 -5 -24 -13 -21 -8 3 -18 -7 -25 -24 -25 -61 -28 -69
-33 -93 -4 -18 4 -36 32 -70 21 -25 64 -80 95 -123 32 -42 62 -77 66 -77 11 0
44 -70 37 -77 -3 -4 -14 1 -25 11 -18 16 -18 16 -13 -9 2 -15 11 -29 18 -32 8
-3 14 -13 14 -23 0 -9 8 -25 19 -34 15 -14 20 -14 24 -3 3 8 1 20 -4 28 -12
20 -11 26 6 26 8 0 15 -7 15 -15 0 -8 11 -30 25 -48 14 -18 25 -40 25 -48 0
-9 5 -16 10 -16 6 0 10 -8 10 -19 0 -10 6 -24 14 -30 11 -9 18 -6 35 17 37 52
75 92 88 92 7 0 13 4 13 9 0 5 13 12 29 16 16 3 39 15 52 26 12 10 28 19 36
19 7 0 13 5 13 10 0 6 -9 10 -21 10 -29 0 -21 32 11 43 20 7 44 2 105 -23 71
-28 88 -31 155 -27 41 3 98 10 125 16 126 30 189 37 387 46 152 6 190 4 381
-26 38 -6 94 -12 125 -14 31 -2 86 -9 122 -15 155 -29 252 -29 630 0 74 5 171
13 215 16 110 8 150 7 295 -10 155 -19 174 -22 283 -49 80 -19 94 -20 155 -8
194 37 180 36 202 16 12 -11 19 -27 17 -37 -5 -16 3 -18 71 -20 43 0 82 -1 88
-1 15 0 85 -49 98 -69 8 -13 6 -22 -8 -37 -17 -19 -17 -20 5 -42 19 -19 27
-21 57 -13 28 7 40 18 58 53 12 25 20 51 17 58 -6 15 18 56 59 97 15 17 28 36
28 43 0 7 4 13 9 13 20 0 123 117 147 167 14 29 32 57 39 63 7 6 16 23 20 38
3 15 16 43 28 62 22 34 25 80 6 80 -5 0 -9 13 -9 29 0 16 -14 55 -30 86 -16
31 -30 63 -30 69 0 7 -9 21 -19 30 -11 10 -22 27 -25 39 -4 12 -24 36 -45 52
-21 17 -49 45 -62 62 -14 19 -33 33 -46 33 -12 0 -26 6 -30 13 -4 7 -30 24
-56 37 -27 14 -65 39 -85 56 -20 17 -55 40 -77 51 -106 54 -192 93 -209 93
-18 0 -178 52 -231 75 -16 7 -56 16 -88 20 -31 4 -60 11 -63 16 -7 11 -24 12
-24 1 0 -12 35 -52 46 -52 5 0 38 -20 73 -45 36 -25 68 -45 71 -45 7 0 189
-120 213 -141 7 -5 31 -23 55 -40 24 -16 41 -35 39 -42 -6 -19 -150 -8 -171
13 -6 6 -24 10 -41 10 -31 0 -64 9 -200 54 -44 15 -125 41 -180 58 -55 17
-110 35 -121 40 -30 14 -61 2 -68 -26 -13 -51 -39 -72 -201 -162 -121 -68
-279 -132 -365 -150 -48 -9 -188 -77 -227 -110 l-33 -27 0 27 c0 30 94 129
145 153 17 8 50 25 75 39 25 13 56 24 69 24 14 0 60 10 104 21 71 20 85 28
138 80 32 32 59 65 59 74 0 8 5 15 10 15 6 0 10 9 10 21 0 29 18 59 35 59 8 0
15 6 15 13 0 12 35 56 93 117 13 14 27 33 30 43 4 10 11 16 16 13 5 -4 12 7
16 23 3 16 13 32 22 35 9 4 13 14 10 26 -3 12 9 48 29 87 18 36 37 86 42 110
11 48 9 224 -3 266 -5 19 -2 35 9 52 9 13 16 32 16 42 1 24 46 67 90 86 l35
15 -28 11 c-16 6 -36 11 -46 11 -26 0 -46 42 -32 69 7 11 17 21 24 21 7 0 13
12 14 27 1 27 59 86 96 98 9 4 17 13 17 21 0 16 3 17 67 34 23 6 49 17 57 25
9 10 17 11 21 5 9 -14 25 -12 25 3 1 15 82 67 106 67 16 0 16 -2 -4 -16 -18
-12 -20 -19 -12 -29 7 -8 9 -19 5 -25 -3 -5 -1 -10 5 -10 7 0 14 9 17 19 3 12
11 17 19 14 8 -3 20 -1 27 5 20 16 87 25 87 11 0 -6 7 -9 15 -5 32 12 42 -4
42 -64 0 -41 -4 -60 -13 -60 -7 0 -15 -6 -17 -12 -4 -9 -6 -9 -6 -1 -1 14 -41
5 -41 -9 0 -6 -6 -8 -14 -5 -18 7 -36 -12 -29 -30 4 -10 0 -13 -13 -11 -11 2
-20 -4 -22 -15 -3 -15 0 -16 22 -6 14 7 28 20 31 31 4 10 15 19 26 19 10 1 28
2 40 3 11 0 25 9 30 19 6 9 14 17 19 17 22 0 101 66 115 97 9 18 20 31 25 28
5 -3 16 8 25 25 8 16 20 30 25 30 14 0 113 106 154 165 64 90 87 116 187 204
25 23 50 41 55 41 5 0 25 13 44 29 32 26 40 28 80 21 25 -4 57 -11 73 -15 27
-7 27 -7 27 42 0 48 -2 51 -37 68 -21 10 -46 22 -55 26 -10 5 -25 9 -33 9 -9
0 -26 7 -40 16 -13 8 -42 15 -64 16 -26 0 -44 6 -50 15 -6 12 -12 13 -29 4
-11 -6 -37 -11 -58 -11 -24 0 -44 -7 -58 -21 -41 -41 -128 -99 -150 -99 -12 0
-38 -11 -58 -25 -20 -14 -50 -25 -67 -25 -16 0 -36 -6 -44 -14 -21 -22 -76
-42 -132 -50 -28 -4 -61 -11 -75 -16 -14 -5 -69 -16 -122 -26 -80 -13 -104
-22 -130 -45 -18 -16 -37 -27 -42 -26 -11 4 -17 60 -30 317 -4 60 -22 105 -66
160 -20 25 -43 56 -50 70 -23 45 -84 120 -97 120 -7 0 -47 34 -88 75 -41 41
-79 75 -84 75 -6 0 -30 18 -52 40 -23 22 -49 40 -59 40 -10 0 -23 7 -30 15 -7
8 -19 15 -27 15 -8 0 -24 11 -37 25 -13 13 -26 22 -29 18 -4 -3 -35 8 -69 25
-35 17 -90 39 -123 49 -45 13 -61 23 -63 38 -3 22 -68 50 -78 34 -3 -5 -16 -9
-30 -9 -14 0 -33 -4 -42 -8 -9 -5 -36 -5 -60 0 -33 7 -42 13 -38 25 6 15 -14
16 -64 2 -8 -2 -14 1 -15 8 0 15 -15 30 -15 16z m-197 -149 c-5 -13 2 -15 43
-13 27 2 56 7 64 12 19 11 74 -9 65 -24 -4 -6 -24 -10 -44 -8 -61 3 -81 0 -81
-15 0 -15 21 -26 51 -26 21 0 27 -20 7 -21 -7 0 -33 -1 -58 -3 -25 -1 -67 1
-95 6 -27 4 -67 10 -87 13 -21 3 -38 10 -38 14 0 20 76 54 118 52 31 -1 42 3
42 14 0 8 4 15 10 15 5 0 7 -7 3 -16z m200 -98 c9 -7 17 -16 17 -20 0 -12 -21
-6 -42 14 -25 23 -5 28 25 6z m97 -41 c0 -8 7 -15 16 -15 8 0 12 -5 8 -11 -4
-8 -9 -8 -17 0 -6 6 -21 11 -34 11 -25 0 -31 15 -10 23 23 10 37 7 37 -8z
m-372 -15 c2 -5 16 -10 30 -10 26 -1 26 -1 -7 -16 -19 -8 -36 -12 -39 -9 -3 2
-10 -2 -16 -9 -13 -17 -76 -10 -76 9 0 7 -7 18 -15 25 -13 11 -13 15 -3 22 17
12 122 2 126 -12z m502 -15 c10 -12 10 -15 -4 -15 -9 0 -16 5 -16 11 0 5 -4 7
-10 4 -5 -3 -10 -1 -10 4 0 16 26 13 40 -4z m114 -20 c4 -10 -1 -15 -14 -15
-20 0 -26 11 -13 23 10 11 20 8 27 -8z m124 -4 c9 -5 32 -15 50 -21 30 -12 45
-38 22 -41 -5 -1 -16 -2 -22 -3 -16 -2 -98 52 -98 64 0 13 25 13 48 1z m-538
-10 c14 -4 24 -13 23 -19 -2 -8 14 -12 45 -12 33 0 43 -3 32 -10 -8 -5 -48 -7
-89 -4 -51 3 -77 1 -82 -7 -4 -7 -42 -16 -85 -20 -44 -5 -101 -11 -129 -14
-45 -5 -88 6 -74 19 3 3 30 8 60 10 140 13 179 19 179 30 0 33 57 45 120 27z
m220 -1 c0 -5 -5 -10 -11 -10 -5 0 -7 5 -4 10 3 6 8 10 11 10 2 0 4 -4 4 -10z
m445 -69 c-3 -6 -11 -8 -17 -5 -6 4 -5 9 3 15 16 10 23 4 14 -10z m157 -18
c14 -16 29 -38 33 -51 6 -21 5 -21 -19 -11 -14 7 -26 18 -26 26 0 11 -12 17
-31 15 -4 -1 -9 10 -12 23 -6 34 22 33 55 -2z m-870 6 c2 -5 12 -11 23 -13 22
-3 33 -26 13 -26 -8 0 -30 -16 -48 -35 -22 -23 -42 -35 -56 -33 -12 2 -28 -3
-36 -10 -8 -6 -30 -15 -49 -18 l-34 -7 30 32 c24 26 27 35 18 50 -14 23 0 41
32 41 12 0 30 7 41 15 22 17 61 20 66 4z m-222 -133 c0 -3 -4 -8 -10 -11 -5
-3 -10 -1 -10 4 0 6 5 11 10 11 6 0 10 -2 10 -4z m-324 -177 c4 -8 9 -7 15 2
6 10 13 11 31 1 13 -6 40 -18 62 -27 28 -11 36 -18 29 -28 -6 -6 -13 -27 -16
-44 -5 -25 -2 -37 13 -51 10 -10 25 -35 32 -56 16 -47 43 -68 61 -46 21 27
110 50 193 50 44 0 84 4 90 8 15 10 13 40 -3 46 -7 3 -13 15 -13 26 0 15 7 20
25 20 14 0 28 -7 31 -15 4 -8 9 -13 14 -10 4 2 22 0 41 -6 68 -21 112 -27 129
-17 25 16 70 2 70 -22 0 -24 3 -24 39 -5 28 14 29 14 23 -7 -4 -18 -2 -20 18
-15 33 8 80 -3 80 -19 0 -16 16 -19 25 -4 9 15 82 12 88 -3 2 -6 28 -20 56
-31 28 -10 58 -28 66 -39 13 -18 18 -20 33 -9 9 6 28 17 42 22 14 6 32 15 40
20 29 20 62 30 73 23 6 -4 1 -10 -14 -16 -22 -9 -22 -10 -4 -14 57 -11 66 -15
62 -26 -2 -6 5 -20 15 -31 20 -22 23 -42 8 -51 -19 -12 -11 -74 12 -97 13 -13
22 -29 20 -35 -2 -7 1 -13 6 -13 4 0 14 -16 20 -35 7 -18 26 -45 42 -59 21
-17 30 -34 30 -55 0 -17 4 -31 8 -31 13 0 15 -21 17 -230 2 -217 -2 -280 -19
-280 -6 0 -17 -9 -24 -20 -14 -22 -42 -26 -60 -8 -9 9 -12 9 -12 0 0 -20 -37
-13 -43 8 -4 17 -13 20 -57 19 -29 -1 -65 -8 -79 -15 -56 -30 -104 -8 -51 22
16 10 30 27 30 37 0 10 5 28 11 39 8 14 8 23 0 31 -15 15 -14 50 1 65 17 17 1
27 -25 15 -38 -18 -134 -27 -141 -14 -9 13 31 30 99 41 28 5 70 15 95 24 27 9
48 12 54 6 12 -12 49 7 40 21 -3 6 -31 21 -62 35 -32 14 -69 31 -84 39 -14 8
-35 15 -46 15 -11 0 -22 5 -24 11 -2 7 -36 13 -86 14 -45 2 -83 7 -84 11 -2
11 1 11 125 19 103 7 120 23 36 31 -24 2 -64 6 -88 9 -58 5 -73 21 -35 36 16
7 32 13 36 13 3 1 10 5 14 9 5 4 -20 5 -54 3 -50 -5 -64 -2 -68 9 -9 22 -24
18 -24 -5 0 -11 -4 -20 -10 -20 -12 0 -12 2 0 36 6 15 13 24 17 21 3 -4 19 1
36 9 52 28 278 3 327 -36 87 -67 99 -73 115 -57 8 9 15 31 15 49 0 19 5 39 11
45 9 9 9 19 0 41 -7 16 -11 33 -9 38 1 5 -12 24 -29 43 -18 19 -31 39 -30 44
1 6 -27 12 -63 14 -36 3 -69 8 -73 13 -5 4 -34 5 -66 3 -32 -3 -75 0 -97 6
-33 9 -41 8 -59 -9 -12 -11 -28 -20 -36 -20 -8 0 -27 -7 -44 -16 -16 -8 -40
-13 -52 -9 -13 3 -39 -1 -59 -10 -46 -19 -73 -19 -80 0 -4 8 -10 12 -15 9 -6
-3 -15 -1 -22 4 -27 21 -67 22 -123 1 -42 -16 -64 -19 -86 -13 -16 5 -29 13
-28 18 3 15 -23 25 -42 15 -23 -12 -88 14 -88 35 0 10 -9 16 -24 16 -13 0 -29
7 -36 15 -7 8 -19 15 -27 15 -11 0 -11 -4 -3 -20 6 -12 8 -30 4 -42 -3 -12 -1
-24 7 -28 10 -7 10 -14 -1 -39 -10 -25 -16 -30 -36 -25 -13 4 -24 2 -24 -4 0
-5 -12 -13 -27 -17 -21 -5 -31 -2 -42 14 -12 16 -25 20 -53 18 -26 -2 -39 1
-44 12 -5 13 -7 12 -14 -5 -8 -19 -13 -21 -62 -13 -29 4 -76 7 -105 6 -42 -2
-53 1 -56 15 -3 11 -11 15 -26 11 -12 -3 -21 -9 -21 -13 0 -4 -9 -10 -20 -13
-23 -6 -26 11 -7 37 10 14 11 34 5 79 -5 34 -4 63 0 66 18 12 18 35 0 53 -10
10 -18 29 -18 43 0 26 -25 35 -33 13 -2 -7 -8 -10 -12 -6 -4 4 0 19 9 33 13
20 22 24 44 19 35 -9 38 -12 25 -25 -9 -9 -7 -21 5 -48 9 -20 20 -37 25 -39 4
-2 7 -15 7 -28 0 -14 6 -24 14 -24 19 0 31 20 28 47 -2 11 2 24 7 28 18 11 12
35 -8 35 -12 0 -26 13 -35 32 -21 41 -21 41 14 33 33 -7 35 -4 20 25 -13 25
-2 70 16 70 8 0 14 6 14 13 0 8 10 19 23 25 l22 11 -22 0 c-29 1 -29 15 -1 35
26 19 64 21 74 5z m-150 -25 c-3 -9 -3 -21 1 -27 13 -22 10 -48 -8 -57 -22
-12 -49 -3 -49 17 0 8 -4 12 -10 8 -5 -3 -7 -12 -3 -20 3 -10 -2 -15 -16 -15
-26 0 -27 10 -1 43 11 14 20 30 20 36 0 6 7 11 15 11 17 0 19 -12 5 -26 -7 -7
-6 -16 4 -29 13 -18 14 -18 26 5 9 18 10 25 1 28 -17 6 -13 42 5 42 11 0 14
-5 10 -16z m429 -15 c4 -6 24 -9 44 -8 44 3 61 -5 61 -32 0 -12 -4 -17 -11
-14 -6 4 -13 -1 -15 -12 -8 -31 -43 -41 -91 -25 -47 15 -54 27 -23 35 11 3 20
10 20 17 0 7 -8 9 -21 5 -16 -6 -20 -4 -14 6 23 40 38 48 50 28z m96 -102
c-16 -16 -26 0 -10 19 9 11 15 12 17 4 2 -6 -1 -17 -7 -23z m-145 -32 c1 -14
-3 -25 -10 -25 -6 0 -11 11 -11 25 0 33 20 33 21 0z m-1552 -336 c-3 -5 -10
-7 -15 -3 -5 3 -7 10 -3 15 3 5 10 7 15 3 5 -3 7 -10 3 -15z m46 -39 c0 -6 8
-14 18 -17 21 -9 51 -43 52 -60 0 -23 121 -103 145 -97 16 4 24 -1 33 -20 6
-14 19 -26 29 -26 23 0 73 -49 73 -72 0 -10 8 -27 18 -38 9 -11 17 -26 17 -33
0 -7 10 -13 23 -15 19 -3 54 -43 64 -75 2 -4 14 -9 27 -12 26 -5 41 -15 23
-15 -6 0 -9 -7 -5 -16 3 -8 11 -13 18 -10 8 3 16 -2 19 -10 3 -9 11 -12 17 -8
8 4 9 3 5 -4 -8 -14 -56 -16 -56 -3 0 8 -41 24 -66 26 -6 0 -25 17 -43 38 -18
20 -41 37 -50 37 -10 0 -31 23 -52 58 -39 66 -108 133 -159 155 -36 14 -65 47
-71 82 -2 10 -8 17 -13 16 -5 -1 -15 11 -22 28 -7 17 -24 35 -37 40 -25 10
-41 36 -31 52 7 12 24 11 24 -1z m3774 -112 c-9 -14 -23 2 -17 18 4 12 8 13
14 3 4 -7 5 -17 3 -21z m-66 -10 c10 -10 15 -10 21 0 6 11 10 10 15 -5 9 -22
-34 -62 -70 -64 -13 -1 -29 -2 -36 -3 -7 -1 -15 14 -19 32 -6 30 -5 32 22 32
15 0 31 5 34 10 8 13 18 13 33 -2z m-2457 -62 c-9 -11 -5 -15 23 -20 19 -4 46
-4 60 0 18 4 26 2 26 -6 0 -9 11 -11 35 -7 26 4 35 2 35 -9 0 -8 10 -14 25
-14 14 0 25 -4 25 -9 0 -10 -13 -15 -69 -26 l-34 -7 29 -13 c16 -6 46 -15 67
-19 46 -9 49 -27 5 -26 -18 1 -58 -1 -88 -3 -53 -5 -155 -10 -174 -8 -20 2 19
31 50 37 61 11 41 31 -35 36 -39 2 -72 6 -75 9 -3 3 -3 15 1 27 4 18 8 20 19
11 19 -16 30 -3 14 16 -15 18 -13 21 20 34 38 15 55 14 41 -3z m701 -146 c22
0 29 -4 26 -17 -3 -17 41 -70 55 -65 4 1 7 -5 7 -13 0 -8 6 -15 14 -15 7 0 19
-13 26 -30 7 -16 16 -30 21 -30 10 0 6 -51 -5 -69 -4 -6 -16 -11 -27 -11 -11
0 -28 -4 -37 -9 -21 -11 -239 6 -269 21 -24 12 -43 4 -43 -18 0 -20 -23 -17
-43 6 -9 11 -12 20 -7 20 5 0 7 7 3 16 -11 30 -57 -36 -72 -105 -8 -34 -17
-57 -21 -51 -5 8 -18 5 -43 -10 -21 -12 -37 -25 -37 -29 0 -4 -14 -7 -30 -6
-17 1 -35 -4 -41 -12 -6 -7 -15 -13 -20 -13 -21 0 -5 29 47 82 64 66 107 126
99 138 -3 5 3 14 12 20 17 11 17 11 1 6 -10 -3 -18 -1 -18 4 0 6 7 10 16 10 9
0 22 7 28 16 15 20 70 9 62 -12 -3 -8 -1 -14 4 -14 5 0 11 9 15 20 3 11 19 27
36 37 16 9 29 20 29 24 0 4 6 6 13 5 6 0 13 4 14 9 1 6 -5 9 -13 7 -21 -4 -17
16 6 30 11 7 20 18 20 23 0 6 16 11 35 12 20 1 46 8 58 17 12 8 28 13 35 10 8
-2 27 -4 44 -4z m-392 -110 c0 -12 -36 -35 -69 -45 -20 -6 -22 -5 -13 11 8 15
37 30 80 43 1 1 2 -3 2 -9z m-105 -60 c-3 -5 -16 -10 -28 -10 -18 0 -19 2 -7
10 20 13 43 13 35 0z m49 -75 c-7 -16 -44 -21 -44 -6 0 8 16 16 42 20 4 0 5
-6 2 -14z m-387 -41 c-3 -3 -12 -4 -19 -1 -8 3 -5 6 6 6 11 1 17 -2 13 -5z
m1034 -16 c11 -13 26 -37 34 -53 7 -17 23 -39 34 -49 11 -10 30 -37 41 -60 12
-22 33 -51 46 -64 30 -29 30 -54 1 -86 -19 -20 -32 -25 -74 -24 -27 0 -56 4
-64 9 -10 6 -10 9 -1 9 6 0 12 5 12 10 0 18 -24 10 -49 -15 -13 -14 -33 -25
-45 -25 -13 0 -26 -3 -30 -7 -4 -5 -31 -13 -59 -20 -44 -10 -54 -9 -63 3 -6 8
-16 14 -23 14 -6 0 -11 7 -11 15 0 17 -25 20 -35 5 -4 -6 -15 -4 -30 6 -23 15
-23 14 -18 -8 5 -23 5 -23 -10 -3 -18 22 -23 85 -7 85 6 0 10 -7 10 -16 0 -20
24 -13 28 9 2 11 -3 17 -15 18 -16 1 -17 2 -1 6 10 2 21 15 24 28 4 16 16 26
34 30 18 4 27 11 24 19 -5 13 81 96 99 96 4 0 29 20 55 45 53 51 66 54 93 23z
m-1061 -22 c0 -12 -39 -52 -67 -69 -6 -4 -18 -4 -27 -1 -13 5 -14 10 -5 20 6
7 8 23 4 36 -6 22 -6 22 9 4 9 -11 16 -15 16 -8 0 6 11 14 25 18 14 3 25 10
25 16 0 5 5 6 10 3 6 -3 10 -12 10 -19z m566 -61 c-1 -19 -7 -25 -23 -25 -34
0 -28 -17 8 -25 31 -7 33 -9 43 -57 5 -24 3 -28 -14 -28 -25 0 -38 -29 -19
-41 21 -13 -8 -30 -46 -27 -23 2 -34 11 -48 40 -16 32 -16 40 -4 65 7 15 12
36 10 45 -3 11 6 24 25 35 16 10 27 24 25 31 -3 7 5 12 20 12 20 0 25 -5 23
-25z m1194 -110 c0 -8 -9 -19 -19 -25 -30 -15 -33 -12 -15 15 18 28 34 33 34
10z m-1070 -65 c0 -5 -4 -10 -10 -10 -5 0 -10 5 -10 10 0 6 5 10 10 10 6 0 10
-4 10 -10z m-150 -85 c0 -8 -6 -15 -14 -15 -8 0 -16 7 -20 15 -4 10 1 15 14
15 11 0 20 -7 20 -15z"/>
<path d="M2163 4595 c-3 -9 -3 -18 -1 -21 3 -3 8 4 11 16 6 23 -1 27 -10 5z"/>
<path d="M1530 4435 c-11 -13 -8 -15 18 -15 16 0 35 7 42 15 11 13 8 15 -18
15 -16 0 -35 -7 -42 -15z"/>
<path d="M1860 4425 c0 -20 38 -57 50 -50 17 11 11 37 -10 42 -11 3 -20 9 -20
14 0 5 -4 9 -10 9 -5 0 -10 -7 -10 -15z"/>
<path d="M220 5455 c0 -8 5 -15 10 -15 6 0 10 7 10 15 0 8 -4 15 -10 15 -5 0
-10 -7 -10 -15z"/>
<path d="M4020 5460 c0 -5 5 -10 10 -10 6 0 10 5 10 10 0 6 -4 10 -10 10 -5 0
-10 -4 -10 -10z"/>
<path d="M4690 5466 c0 -2 7 -9 15 -16 9 -7 15 -8 15 -2 0 5 -7 12 -15 16 -8
3 -15 4 -15 2z"/>
<path d="M4751 5431 c-10 -6 -10 -10 -1 -16 13 -8 24 -1 19 14 -3 6 -10 7 -18
2z"/>
<path d="M0 5361 c0 -17 17 -21 51 -14 28 5 30 7 14 14 -28 11 -65 11 -65 0z"/>
<path d="M3820 5330 c0 -5 5 -10 10 -10 6 0 10 5 10 10 0 6 -4 10 -10 10 -5 0
-10 -4 -10 -10z"/>
<path d="M240 5279 c0 -5 5 -7 10 -4 6 3 10 8 10 11 0 2 -4 4 -10 4 -5 0 -10
-5 -10 -11z"/>
<path d="M0 5239 c0 -5 5 -7 10 -4 5 3 10 8 10 11 0 2 -4 4 -10 4 -5 0 -10 -5
-10 -11z"/>
<path d="M3780 3972 l-24 -20 42 2 c23 0 42 4 42 9 0 4 -4 6 -9 2 -6 -3 -14 2
-19 10 -7 14 -11 14 -32 -3z"/>
<path d="M3553 3744 c-7 -3 -13 -12 -13 -20 0 -8 -6 -14 -12 -14 -7 0 0 -7 16
-15 27 -14 51 -14 124 1 31 6 25 37 -8 39 -14 1 -41 5 -60 8 -19 3 -41 4 -47
1z"/>
<path d="M3488 3733 c-9 -21 -1 -58 13 -61 11 -2 15 6 15 33 0 21 -5 35 -12
35 -7 0 -14 -3 -16 -7z"/>
<path d="M4590 1928 c-12 -22 -12 -22 6 -6 10 10 15 20 12 24 -4 3 -12 -5 -18
-18z"/>
<path d="M4597 1833 c-78 -81 -119 -139 -131 -185 -3 -16 -13 -28 -20 -28 -20
0 -107 -93 -131 -139 -11 -22 -42 -71 -70 -110 -42 -60 -54 -71 -75 -69 -34 4
-42 47 -10 55 25 7 21 27 -6 31 -10 2 -25 11 -31 20 -7 9 -13 11 -13 4 0 -6
-7 -9 -15 -6 -8 4 -15 14 -15 23 0 9 -6 26 -14 37 -13 17 -24 20 -90 18 -67
-1 -76 1 -82 18 -4 12 0 24 12 32 26 20 3 27 -52 17 -27 -5 -52 -7 -56 -4 -5
2 -32 -3 -62 -11 -55 -16 -121 -15 -191 3 -22 6 -62 11 -88 11 -31 0 -49 5
-53 14 -3 8 -19 14 -39 14 -19 0 -42 7 -50 16 -21 20 -35 20 -35 0 0 -13 -6
-15 -27 -10 -102 22 -143 27 -189 21 -61 -7 -166 -14 -324 -20 -63 -3 -142 -7
-175 -9 -33 -3 -67 -1 -75 4 -10 6 -26 2 -49 -12 -32 -20 -36 -21 -62 -5 -16
9 -31 12 -34 7 -9 -15 -231 1 -505 37 -69 9 -135 16 -147 15 -57 -5 -111 -1
-128 9 -5 3 -21 4 -35 2 -14 -2 -90 -6 -170 -9 -111 -4 -159 -10 -203 -25 -34
-12 -69 -18 -83 -15 -14 4 -33 0 -47 -8 -21 -15 -40 -15 -182 -3 -16 1 -36 6
-44 11 -8 5 -46 10 -84 11 -65 1 -70 -1 -79 -25 -5 -14 -25 -40 -45 -57 -20
-18 -34 -33 -30 -33 14 0 -29 -42 -52 -51 -14 -6 -21 -15 -18 -23 3 -8 -1 -22
-8 -33 -8 -10 -15 -26 -15 -35 0 -10 -6 -18 -14 -18 -16 0 -46 26 -46 41 0 5
-8 17 -17 27 -26 25 -58 76 -55 86 4 13 -46 93 -63 99 -8 4 -12 13 -9 21 6 15
-26 38 -47 34 -7 -2 -13 7 -13 21 -1 13 -10 29 -20 35 -33 19 -66 49 -66 60 0
15 -61 81 -82 89 -10 4 -18 11 -18 17 0 5 -4 10 -10 10 -6 0 -10 -33 -10 -80
0 -64 3 -80 15 -80 19 0 19 -21 0 -46 -18 -24 -22 -364 -4 -364 6 0 23 9 37
21 17 13 28 16 30 9 8 -24 -21 -98 -49 -125 -35 -32 -33 -50 5 -50 28 -1 96
-59 83 -72 -4 -3 -13 -1 -19 5 -7 7 -16 12 -22 12 -5 0 -6 -3 -3 -7 12 -11
-25 -43 -50 -43 -19 0 -23 -5 -23 -33 0 -18 7 -42 15 -54 8 -12 12 -28 9 -36
-3 -8 -1 -18 5 -22 13 -7 15 -55 3 -55 -4 0 -13 5 -20 12 -9 9 -12 -31 -12
-181 0 -116 4 -190 9 -186 18 10 23 -16 7 -34 -11 -12 -16 -37 -16 -78 0 -65
10 -78 83 -110 15 -7 27 -16 27 -21 0 -6 8 -9 17 -8 10 0 19 -7 21 -16 3 -14
-3 -18 -22 -18 -14 0 -26 -5 -26 -11 0 -7 9 -9 21 -6 13 4 22 0 26 -11 4 -8
14 -23 24 -33 16 -16 18 -16 24 -1 5 14 7 14 15 2 6 -9 5 -17 -1 -21 -6 -3 -2
-9 10 -12 16 -4 21 1 26 24 9 38 33 39 27 1 -5 -38 18 -58 49 -42 17 9 23 9
29 0 4 -7 13 -9 19 -5 14 8 91 -4 91 -15 0 -4 -39 -10 -87 -12 -77 -4 -94 -2
-133 18 -148 74 -194 94 -215 94 -24 0 -25 -3 -25 -64 0 -50 4 -65 17 -70 14
-6 14 -8 -3 -21 -17 -13 54 -14 568 -14 453 0 588 2 591 12 4 9 6 9 6 0 1 -8
15 -13 36 -13 29 0 35 4 35 21 0 12 5 19 13 16 6 -2 11 -11 9 -21 -3 -15 28
-16 358 -16 313 0 360 2 360 15 0 8 5 15 10 15 6 0 10 -7 10 -15 0 -22 2218
-23 2226 0 5 12 9 12 31 -2 21 -14 26 -14 35 -2 7 11 11 11 15 2 3 -10 59 -13
229 -13 l224 0 0 75 c0 41 -2 75 -5 75 -2 0 -29 -11 -59 -25 -29 -13 -80 -28
-112 -31 -33 -4 -68 -13 -79 -20 -27 -17 -134 -51 -165 -52 l-25 0 23 10 c12
6 22 18 22 26 0 11 8 13 30 8 21 -4 30 -2 30 7 0 7 13 23 30 35 25 19 33 20
49 10 15 -9 22 -8 36 5 16 16 45 22 92 18 12 -1 28 8 37 20 13 20 16 20 31 6
13 -13 20 -14 40 -5 27 12 35 52 13 62 -10 5 -10 7 0 12 9 4 12 83 12 341 l0
336 -31 -7 c-25 -5 -32 -2 -36 14 -3 11 -13 22 -23 25 -34 11 -32 35 5 51 41
17 48 17 40 4 -3 -5 -2 -10 3 -10 6 0 8 -10 4 -22 -4 -17 -2 -20 12 -15 10 4
20 7 22 7 2 0 4 144 4 320 0 193 -4 320 -9 320 -6 0 -9 -12 -8 -27 2 -24 -2
-28 -29 -31 -44 -4 -55 25 -15 39 22 8 28 16 27 35 -1 30 -11 30 -41 -1 l-25
-24 0 29 c0 15 -5 30 -11 32 -7 2 -8 15 -2 38 7 28 15 36 36 38 15 2 27 9 27
16 0 23 -32 106 -41 106 -5 0 -9 7 -9 15 0 27 -27 16 -73 -32z m33 -209 c0
-28 -15 -32 -29 -6 -7 13 -7 22 1 30 16 16 28 5 28 -24z m-4546 -16 c-2 -54
-17 -93 -40 -102 -15 -6 -16 0 -10 56 4 42 12 67 23 76 26 18 28 16 27 -30z
m56 -63 c0 -47 -24 -47 -27 0 -2 26 1 35 12 35 10 0 15 -11 15 -35z m1423 -68
c15 -17 25 -37 22 -45 -3 -7 -5 -17 -5 -22 0 -5 -12 -22 -26 -39 -19 -24 -34
-31 -60 -31 -26 0 -34 4 -34 18 0 9 -9 23 -20 30 -33 20 -27 73 12 105 39 33
71 28 111 -16z m-223 4 c0 -40 -19 -49 -42 -21 -21 26 -10 50 23 50 14 0 19
-7 19 -29z m3170 14 c0 -8 -7 -15 -15 -15 -16 0 -20 12 -8 23 11 12 23 8 23
-8z m29 -27 c-12 -20 -14 -21 -17 -5 -2 10 2 25 9 34 18 21 23 0 8 -29z
m-3869 12 c0 -6 -7 -26 -14 -45 -15 -34 -36 -47 -36 -22 0 6 -3 22 -6 34 -5
18 -1 25 17 32 32 13 39 13 39 1z m523 -58 c-8 -22 -34 -52 -44 -52 -5 0 -18
8 -29 17 -29 25 -26 65 7 84 25 16 27 16 49 -8 14 -15 20 -31 17 -41z m544 51
c2 -6 -6 -17 -18 -24 -19 -10 -25 -9 -35 6 -8 10 -11 22 -8 27 8 13 57 6 61
-9z m-1485 -5 c9 -7 18 -25 20 -40 5 -25 2 -28 -21 -28 -19 0 -22 -3 -12 -9
16 -10 6 -31 -15 -31 -16 0 -16 -2 -8 -24 3 -9 13 -16 20 -16 12 0 13 -4 3
-22 -6 -13 -13 -25 -15 -27 -4 -5 -47 41 -61 67 -25 42 -4 120 30 114 10 -2
17 4 17 13 0 18 20 20 42 3z m775 -14 c5 -15 -34 -57 -46 -49 -17 10 -13 43 7
54 19 12 34 10 39 -5z m854 -7 c-5 -7 -11 -23 -13 -36 -4 -34 -24 -37 -31 -6
-3 18 2 32 16 45 21 20 45 17 28 -3z m209 -18 c0 -37 -17 -46 -41 -20 -24 25
-24 38 -1 43 35 8 42 4 42 -23z m795 10 c4 -11 5 -23 2 -25 -9 -9 -57 8 -57
20 0 32 45 36 55 5z m215 6 c0 -17 -4 -18 -49 -9 -40 8 -30 24 15 24 24 0 34
-5 34 -15z m-2224 -26 c19 -38 12 -70 -24 -104 -30 -28 -70 -33 -78 -10 -4 8
-12 15 -19 15 -33 0 -27 91 8 115 12 8 38 15 59 15 32 0 40 -5 54 -31z m1814
11 c0 -11 7 -20 15 -20 8 0 15 -9 15 -20 0 -11 -7 -20 -15 -20 -8 0 -15 7 -15
15 0 21 -27 19 -39 -2 -11 -20 -16 -17 -25 15 -6 18 -4 22 14 22 11 0 23 7 26
15 9 22 24 18 24 -5z m590 10 c13 -9 12 -13 -9 -30 -27 -23 -41 -18 -41 16 0
26 22 32 50 14z m-1352 -26 c3 -19 -33 -72 -43 -63 -2 3 1 24 7 47 11 43 31
52 36 16z m576 18 c3 -5 -8 -22 -24 -37 l-30 -29 0 31 c0 30 9 40 37 42 6 1
14 -3 17 -7z m-204 -16 c0 -8 10 -16 23 -18 16 -2 23 -11 25 -32 5 -37 -42
-83 -87 -84 -46 -1 -41 26 6 30 41 3 50 19 39 63 -5 19 -14 24 -43 27 -52 4
-56 28 -4 28 29 0 41 -4 41 -14z m1558 6 c7 -5 10 -16 6 -26 -5 -13 -13 -16
-31 -11 -42 10 -61 -2 -68 -46 -5 -30 -11 -39 -23 -37 -25 5 -28 59 -5 75 10
8 18 19 18 26 0 18 80 33 103 19z m-848 -43 c0 -32 3 -40 14 -36 19 8 77 -15
73 -28 -2 -5 -20 -11 -41 -12 -31 -2 -38 2 -46 22 -5 14 -14 25 -20 25 -5 0
-10 16 -10 35 0 24 5 35 15 35 11 0 15 -11 15 -41z m126 26 c9 -23 -5 -65 -21
-65 -10 0 -15 11 -15 33 0 19 3 37 7 40 11 11 23 8 29 -8z m344 -39 c0 -16
-18 -3 -28 19 -17 37 -15 41 8 12 11 -14 20 -28 20 -31z m-1262 2 c-3 -44 -22
-62 -33 -29 -8 28 4 71 22 71 10 0 13 -11 11 -42z m1202 11 c0 -20 -15 -26
-25 -9 -9 15 3 43 15 35 5 -3 10 -15 10 -26z m216 16 c7 -18 -14 -47 -30 -42
-6 2 -12 16 -13 30 -1 21 3 27 18 27 11 0 22 -7 25 -15z m-568 -7 c-2 -6 -10
-14 -16 -16 -7 -2 -10 2 -6 12 7 18 28 22 22 4z m826 -67 c-18 -37 -33 -49
-64 -52 -43 -4 -60 1 -60 16 0 11 12 15 45 15 l45 0 0 38 c0 49 10 59 32 33
15 -19 15 -24 2 -50z m-3365 -4 c1 -10 -3 -15 -9 -12 -5 3 -10 23 -9 43 1 33
2 34 9 12 4 -14 8 -33 9 -43z m3291 23 c0 -11 -4 -20 -10 -20 -5 0 -10 9 -10
20 0 11 5 20 10 20 6 0 10 -9 10 -20z m528 -22 c-4 -53 -25 -61 -34 -13 -5 27
-3 40 7 46 25 16 30 10 27 -33z m-4067 -21 c-16 -16 -26 20 -10 40 13 15 14
14 17 -7 2 -12 -1 -27 -7 -33z m109 -68 c7 -11 9 -23 7 -26 -8 -7 -47 21 -47
34 0 21 28 15 40 -8z m855 -87 c-3 -18 -19 -48 -35 -65 -74 -80 -76 -81 -74
-13 1 27 8 54 18 64 9 10 16 26 16 35 0 9 7 17 15 17 9 0 18 8 22 18 3 9 13
25 22 36 15 17 16 16 19 -20 2 -21 1 -53 -3 -72z m3054 67 c-13 -10 -30 -19
-37 -19 -15 0 -12 31 3 32 6 0 19 7 30 14 30 21 33 -4 4 -27z m335 20 c-3 -5
-8 -26 -10 -46 -6 -47 -13 -57 -30 -42 -23 19 5 113 31 103 8 -3 12 -10 9 -15z
m-4504 -14 c0 -8 -7 -15 -16 -15 -14 0 -14 3 -4 15 7 8 14 15 16 15 2 0 4 -7
4 -15z m3944 9 c9 -4 16 -18 16 -34 0 -36 -16 -48 -25 -18 -19 65 -19 63 9 52z
m-3054 -13 c0 -6 13 -17 28 -27 54 -31 69 -87 46 -162 -5 -17 -39 1 -74 38
-25 26 -27 43 -21 138 1 21 21 33 21 13z m765 -24 c17 -17 35 -42 39 -55 4
-12 12 -22 17 -22 11 0 12 -70 0 -88 -6 -11 -10 -10 -16 5 -5 10 -7 24 -6 31
1 6 -4 12 -12 12 -19 0 -62 51 -70 81 -6 24 1 69 10 69 3 0 20 -15 38 -33z
m2706 14 c2 2 13 -2 24 -8 17 -10 17 -13 5 -29 -14 -16 -13 -17 18 -11 l32 7
-15 -36 c-8 -20 -15 -38 -15 -40 0 -2 -11 -4 -25 -4 -20 0 -25 5 -25 24 0 14
-4 27 -9 31 -6 3 -9 23 -8 45 1 22 4 35 8 29 3 -6 8 -9 10 -8z m264 -8 c-4
-10 -8 -25 -9 -33 -1 -9 -6 -22 -11 -30 -5 -8 -8 -25 -7 -37 4 -25 -26 -38
-64 -29 -17 5 -24 13 -24 31 0 14 5 25 10 25 6 0 10 8 10 18 0 21 58 71 84 72
13 0 16 -4 11 -17z m-4230 -37 c8 -19 21 -41 30 -49 12 -12 13 -22 5 -42 -15
-40 -14 -41 49 -41 33 1 62 -2 66 -6 11 -11 -19 -47 -52 -63 -18 -9 -33 -22
-33 -29 0 -13 -48 -29 -62 -20 -3 2 -1 17 5 34 9 22 14 27 24 18 8 -6 16 -8
20 -4 3 3 1 6 -5 6 -7 0 -12 7 -12 15 0 8 -4 15 -9 15 -5 0 -12 14 -16 30 -4
17 -16 35 -26 41 -19 10 -19 12 -5 33 13 21 13 26 -4 54 -18 29 -17 42 2 42 5
0 15 -15 23 -34z m1483 -15 c1 -27 -3 -41 -14 -45 -9 -3 -14 -12 -12 -18 3 -7
-6 -21 -18 -31 -19 -15 -28 -16 -45 -7 -17 10 -20 18 -15 43 7 39 49 79 54 53
2 -9 8 -16 13 -16 6 0 7 9 4 20 -7 21 11 54 24 45 4 -2 8 -22 9 -44z m795 -18
c-4 -41 -9 -50 -21 -45 -9 3 -13 1 -9 -4 9 -15 -66 -90 -87 -89 -11 0 -8 78 4
85 4 3 11 16 15 30 10 31 34 50 55 42 8 -3 12 -1 7 3 -9 11 24 48 35 37 4 -4
5 -31 1 -59z m-245 22 c8 -5 24 -20 37 -32 12 -13 28 -23 35 -23 8 0 9 -6 4
-17 -4 -10 -8 -35 -9 -55 -1 -40 -15 -67 -15 -29 0 17 -4 22 -16 17 -9 -4 -23
-1 -31 6 -26 22 -58 118 -34 103 17 -10 23 15 7 31 -29 29 -15 29 22 -1z m779
-12 c15 -38 42 -65 55 -57 5 3 7 -21 7 -53 -1 -32 -3 -50 -6 -40 -3 13 -11 17
-25 14 -11 -3 -17 -3 -14 0 3 3 -10 23 -29 45 -34 37 -41 61 -29 106 9 32 23
27 41 -15z m231 3 c2 -10 1 -33 -3 -52 -5 -27 -11 -34 -30 -34 -16 0 -27 -9
-37 -30 -7 -16 -16 -30 -20 -30 -5 0 -11 0 -15 0 -5 0 -9 22 -10 48 -3 51 6
65 67 105 30 19 44 17 48 -7z m-3090 -35 c-5 -14 -9 -27 -9 -28 1 -2 -2 -4 -6
-5 -14 -5 -15 53 -2 68 18 22 30 -2 17 -35z m902 -20 c0 -22 -51 -52 -57 -33
-6 17 -33 15 -33 -3 0 -9 6 -12 15 -9 8 4 15 1 15 -4 0 -15 -30 -43 -40 -37
-5 3 -19 1 -32 -4 -38 -14 -54 1 -33 33 10 14 21 26 25 26 5 0 11 9 15 19 6
20 24 26 88 28 29 1 37 -2 37 -16z m311 -8 c9 -10 27 -28 40 -40 28 -25 49
-50 49 -58 0 -11 -31 -4 -64 16 -27 16 -36 17 -36 7 -1 -7 -7 -2 -15 12 -7 14
-24 27 -37 30 -37 9 -35 38 4 43 18 2 35 5 38 5 3 1 13 -6 21 -15z m-702 -35
c67 -73 73 -87 39 -90 -78 -5 -122 7 -138 37 -7 14 -20 25 -28 25 -29 0 -4 25
29 28 19 2 38 8 44 13 15 15 31 11 54 -13z m2264 10 c20 -6 37 -14 37 -18 0
-4 9 -17 20 -30 11 -13 20 -27 20 -32 0 -16 -55 -29 -97 -23 -33 5 -42 11 -45
28 -2 12 -6 20 -10 17 -9 -7 -51 48 -44 58 7 12 76 12 119 0z m-323 -4 c0 -3
-12 -21 -27 -41 -27 -36 -57 -53 -105 -59 -14 -2 -30 -4 -35 -5 -47 -8 -42 17
15 68 42 38 52 42 100 43 28 0 52 -3 52 -6z m-818 -23 c14 -12 -42 -62 -62
-56 -12 4 -20 0 -22 -9 -3 -13 -7 -13 -36 0 -35 14 -35 34 -1 34 10 0 19 6 19
14 0 28 77 40 102 17z m-635 -13 c-3 -8 -6 -5 -6 6 -1 11 2 17 5 13 3 -3 4
-12 1 -19z m2138 14 c13 6 31 8 39 5 20 -8 10 -37 -13 -37 -10 0 -23 -14 -31
-36 -14 -34 -15 -35 -55 -28 -22 3 -44 9 -48 13 -10 10 2 43 13 36 5 -3 21 8
37 24 15 16 29 25 31 20 2 -4 14 -3 27 3z m-1093 -44 c21 -21 43 -38 50 -39 7
0 -9 -6 -37 -13 -41 -9 -53 -9 -67 3 -9 8 -14 21 -10 29 4 11 1 14 -11 9 -11
-4 -26 3 -41 18 -13 13 -22 25 -21 27 2 2 25 3 52 3 42 0 52 -4 85 -37z m1983
33 c3 -5 -4 -16 -16 -25 -12 -8 -18 -19 -14 -25 4 -7 -3 -11 -17 -11 -28 0
-42 9 -51 32 -5 14 1 20 26 27 43 12 65 13 72 2z m-4252 -62 c3 -12 11 -17 20
-13 10 3 18 -2 22 -17 6 -17 9 -19 17 -8 6 10 8 7 6 -11 -2 -17 -8 -24 -20
-22 -22 4 -23 -11 -2 -32 14 -15 13 -16 -6 -16 -12 0 -19 4 -15 9 3 5 1 12 -5
16 -5 3 -10 15 -10 26 0 10 -4 19 -9 19 -5 0 -11 10 -14 23 -2 12 -8 30 -12
40 -5 13 -3 16 8 11 8 -3 17 -14 20 -25z m4147 27 c0 -3 -4 -8 -10 -11 -5 -3
-10 -1 -10 4 0 6 5 11 10 11 6 0 10 -2 10 -4z m-3629 -49 c-10 -9 -11 -8 -5 6
3 10 9 15 12 12 3 -3 0 -11 -7 -18z m2329 -29 c0 -3 -8 -4 -19 -1 -13 3 -20
-2 -25 -21 -7 -29 -21 -34 -30 -10 -7 19 1 34 18 34 8 0 16 10 20 22 5 22 6
22 20 3 9 -11 16 -23 16 -27z m-1800 17 c6 -8 15 -29 19 -47 l8 -33 -41 0
c-30 0 -48 6 -67 25 -31 30 -42 57 -26 64 27 11 95 5 107 -9z m478 3 c18 -18
14 -38 -7 -38 -10 0 -30 -9 -44 -20 -14 -11 -33 -20 -42 -20 -9 0 -13 -4 -10
-10 8 -12 -68 -8 -77 4 -12 17 12 46 55 65 68 32 107 37 125 19z m1237 2 c3
-5 2 -10 -4 -10 -5 0 -13 5 -16 10 -3 6 -2 10 4 10 5 0 13 -4 16 -10z m955
-16 c0 -8 -4 -14 -10 -14 -5 0 -10 9 -10 21 0 11 5 17 10 14 6 -3 10 -13 10
-21z m-2480 -5 c0 -5 -4 -9 -10 -9 -5 0 -10 7 -10 16 0 8 5 12 10 9 6 -3 10
-10 10 -16z m-990 2 c0 -5 -8 -27 -18 -48 -36 -81 -82 -97 -78 -26 2 35 4 38
33 41 21 2 34 10 38 23 6 19 25 27 25 10z m540 -10 c-1 -12 -38 -51 -50 -51
-7 0 -6 -5 3 -14 8 -8 24 -14 36 -13 23 1 28 13 9 20 -8 4 -7 6 3 6 9 1 19 10
22 21 3 11 10 20 16 20 16 0 13 -21 -6 -43 -17 -18 -17 -19 0 -28 23 -13 22
-56 -3 -71 -11 -7 -20 -18 -20 -24 0 -7 -11 -15 -25 -18 -18 -5 -25 -13 -25
-31 0 -24 -15 -42 -23 -28 -5 11 8 134 17 154 5 12 1 18 -13 22 -15 3 -21 -1
-24 -17 l-4 -21 -8 21 c-5 15 -13 20 -26 17 -14 -4 -19 0 -19 16 0 11 5 21 10
21 6 0 15 12 20 26 6 14 14 23 18 20 4 -2 13 -1 20 3 14 8 72 2 72 -8z m1781
8 c19 1 28 -5 32 -19 3 -11 12 -20 21 -20 9 0 16 -7 16 -15 0 -9 7 -18 15 -21
8 -4 15 -13 15 -21 0 -11 -7 -14 -27 -10 -15 3 -37 0 -50 -6 -30 -13 -69 6
-89 45 -8 15 -21 28 -29 28 -8 0 -12 6 -9 13 6 17 46 36 64 29 8 -2 27 -4 41
-3z m1882 -29 c17 0 32 -43 17 -48 -6 -2 -10 -10 -10 -18 0 -9 5 -12 12 -8 7
5 9 0 6 -14 -3 -12 -3 -23 1 -25 3 -2 0 -2 -7 0 -8 1 -20 3 -28 3 -11 0 -13 6
-9 21 5 16 3 20 -12 17 -17 -3 -21 11 -12 37 2 6 0 12 -6 14 -17 6 -37 40 -30
51 4 6 17 3 35 -10 15 -11 35 -20 43 -20z m-4543 10 c0 -11 -4 -20 -10 -20 -5
0 -10 9 -10 20 0 11 5 20 10 20 6 0 10 -9 10 -20z m3184 14 c21 -8 20 -23 -1
-41 -16 -13 -14 -14 18 -11 l37 4 -4 -57 c-3 -52 -7 -62 -46 -102 -24 -24 -54
-48 -67 -52 -22 -7 -23 -6 -18 47 3 29 9 68 13 87 5 24 3 32 -5 27 -6 -4 -8
-12 -5 -18 5 -8 -7 -9 -41 -5 -26 4 -61 7 -77 7 l-29 0 18 25 c10 13 23 25 28
25 6 0 15 10 20 22 6 13 21 28 35 35 26 13 97 17 124 7z m-1261 -46 c11 -21
24 -38 29 -38 4 0 8 -5 8 -11 0 -6 -19 -9 -47 -7 -47 3 -48 4 -47 36 1 17 -2
32 -7 32 -5 0 -9 -5 -9 -11 0 -5 -4 -7 -10 -4 -5 3 -10 15 -10 26 0 16 6 19
36 16 29 -2 39 -8 57 -39z m477 31 c0 -5 5 -7 11 -3 7 4 10 1 7 -7 -3 -8 -10
-14 -16 -14 -7 0 -12 -4 -13 -10 -1 -18 -21 -35 -40 -35 -11 0 -19 -5 -19 -11
0 -7 -8 -9 -22 -4 -13 4 -33 6 -45 6 -28 -1 -29 13 -3 42 18 18 22 20 30 7 5
-8 10 -10 10 -4 0 7 17 19 38 27 44 19 62 21 62 6z m980 -10 c0 -7 10 -9 25
-5 18 5 27 1 35 -13 14 -28 13 -31 -11 -28 -12 1 -24 -4 -27 -12 -2 -8 0 -11
6 -7 15 9 42 -4 42 -21 0 -8 -4 -11 -10 -8 -5 3 -23 -6 -39 -21 -26 -23 -29
-31 -25 -68 2 -26 -1 -50 -10 -61 -13 -18 -14 -17 -32 11 -10 16 -26 35 -36
42 -25 19 -42 121 -25 149 12 20 47 2 47 -23 0 -15 6 -24 15 -24 8 0 15 -4 15
-10 0 -5 9 -10 20 -10 29 0 25 22 -12 59 -31 32 -32 34 -13 47 23 17 35 18 35
3z m-2940 -31 c0 -5 13 -23 30 -39 31 -32 31 -54 -2 -62 -33 -9 -68 13 -67 42
0 14 3 20 6 14 5 -14 33 -18 33 -5 0 4 -5 14 -10 22 -8 12 -13 13 -30 3 -11
-7 -22 -13 -25 -13 -9 0 -6 30 5 50 9 17 14 18 35 8 14 -6 25 -15 25 -20z
m566 17 c4 -8 12 -15 20 -15 7 0 11 -6 8 -14 -3 -9 3 -17 15 -21 17 -5 20 -14
19 -65 -1 -60 -8 -71 -33 -47 -7 6 -24 20 -38 30 -28 20 -44 96 -27 128 13 23
28 25 36 4z m3330 -18 c-17 -16 -24 -30 -20 -41 5 -12 2 -15 -10 -10 -19 7
-20 18 -5 45 9 18 49 41 58 33 2 -1 -9 -14 -23 -27z m-3136 3 c0 -5 -2 -10 -4
-10 -3 0 -8 5 -11 10 -3 6 -1 10 4 10 6 0 11 -4 11 -10z m469 -4 c9 -11 8 -15
-5 -20 -9 -4 -20 -3 -23 0 -3 4 0 9 8 12 11 4 11 6 0 13 -8 5 -9 9 -3 9 6 0
17 -6 23 -14z m85 -54 c-2 -10 2 -3 10 13 10 20 15 24 16 13 0 -10 6 -18 14
-18 7 0 19 -7 27 -16 10 -13 10 -17 -2 -25 -10 -6 -11 -11 -3 -16 16 -11 22
-65 8 -70 -7 -2 -18 10 -25 27 -8 16 -17 30 -21 30 -5 0 -8 9 -8 21 0 14 -5
19 -14 16 -18 -7 -31 42 -20 75 7 22 7 22 15 -5 4 -16 6 -36 3 -45z m822 12
c40 -45 42 -48 37 -98 -7 -68 -21 -85 -45 -54 -9 13 -18 29 -18 36 0 7 -4 11
-9 8 -10 -6 -35 20 -44 47 -4 9 -4 38 0 62 8 58 24 58 79 -1z m1867 -15 c6
-40 -14 -73 -50 -84 -21 -6 -23 -3 -23 35 0 30 6 47 25 66 14 14 25 30 25 37
1 22 17 -17 23 -54z m-1987 11 c-11 -72 -45 -116 -59 -77 -3 7 -9 0 -16 -15
-8 -22 -17 -28 -40 -28 -28 0 -29 2 -21 29 4 15 4 34 0 41 -8 13 27 40 54 40
6 0 22 12 35 25 36 39 55 33 47 -15z m-833 3 c57 21 60 20 53 -9 -9 -35 -45
-65 -68 -58 -10 3 -18 0 -18 -6 0 -6 5 -8 10 -5 6 3 10 2 10 -4 0 -6 -9 -15
-20 -21 -22 -12 -25 -4 -20 60 3 45 7 49 26 22 16 -23 34 -29 34 -12 0 6 -7
10 -15 10 -10 0 -15 9 -14 28 1 18 3 21 6 9 3 -10 10 -17 16 -14z m1865 -18
c-9 -9 -30 14 -23 25 6 9 10 8 17 -4 6 -10 8 -19 6 -21z m848 -12 c-10 -10
-19 5 -10 18 6 11 8 11 12 0 2 -7 1 -15 -2 -18z m-4219 1 c3 -8 2 -24 -3 -35
-9 -20 -10 -20 -38 2 -27 21 -27 23 -10 36 24 17 43 17 51 -3z m2102 -5 c-16
-10 -23 -4 -14 10 3 6 11 8 17 5 6 -4 5 -9 -3 -15z m1564 7 c21 8 22 -9 2 -26
-8 -7 -15 -9 -15 -4 0 4 -5 3 -12 -4 -21 -21 -27 -13 -16 19 6 18 13 26 18 20
3 -7 14 -9 23 -5z m516 5 c18 -12 5 -52 -15 -44 -7 3 -14 16 -14 29 0 25 7 29
29 15z m-3938 -52 c-25 -24 -31 -24 -31 0 0 11 9 23 20 26 11 3 21 12 21 18 1
7 3 4 6 -6 3 -11 -4 -27 -16 -38z m-43 1 c1 -35 -23 -41 -31 -8 -7 25 -1 38
17 38 8 0 13 -13 14 -30z m-123 10 c3 -5 -3 -10 -14 -10 -12 0 -21 5 -21 10 0
6 6 10 14 10 8 0 18 -4 21 -10z m209 -41 c17 -34 13 -51 -9 -42 -9 3 -15 18
-15 39 0 42 4 43 24 3z m3986 -24 c0 -8 -4 -15 -10 -15 -5 0 -10 7 -10 15 0 8
5 15 10 15 6 0 10 -7 10 -15z m-409 -43 c-18 -5 -45 23 -36 38 5 7 14 4 28
-12 17 -17 19 -24 8 -26z m-3759 -1 c6 -53 -33 -95 -40 -43 -4 24 -27 30 -35
10 -3 -7 -6 -2 -6 11 -1 29 33 61 59 54 11 -3 20 -16 22 -32z m198 -23 c0 -6
-7 -5 -15 2 -8 7 -15 17 -15 22 0 6 7 5 15 -2 8 -7 15 -17 15 -22z m943 -58
c19 -22 23 -95 6 -105 -17 -11 -23 3 -21 52 2 42 0 45 -21 39 -12 -3 -32 -6
-43 -6 -16 0 -23 -7 -26 -28 -6 -40 0 -52 27 -52 34 0 55 -10 55 -26 0 -20
-76 -19 -84 1 -3 8 -13 15 -22 15 -14 0 -15 7 -10 42 4 23 10 45 15 48 4 3 10
13 14 23 10 26 87 24 110 -3z m1533 -47 c14 -21 18 -38 14 -67 -6 -47 -33 -64
-30 -20 4 61 1 74 -20 74 -23 0 -25 -12 -9 -42 8 -16 8 -22 -2 -29 -18 -10
-29 -2 -29 22 0 10 -4 19 -9 19 -11 0 -21 -25 -21 -52 0 -16 5 -19 28 -14 31
7 62 -8 47 -22 -6 -5 -24 -14 -41 -20 -28 -9 -32 -7 -46 17 -26 44 -30 79 -13
112 29 54 99 66 131 22z m-1590 -20 c-11 -11 -19 6 -11 24 8 17 8 17 12 0 3
-10 2 -21 -1 -24z m789 26 c10 -15 -2 -23 -33 -24 -21 0 -31 -8 -45 -37 -22
-45 -37 -49 -37 -9 0 41 37 81 77 81 17 0 35 -5 38 -11z m-1795 -20 c0 -11 -4
-17 -10 -14 -5 3 -10 13 -10 21 0 8 5 14 10 14 6 0 10 -9 10 -21z m650 7 c0
-8 7 -16 15 -20 8 -3 15 -13 15 -22 0 -19 -28 -54 -43 -54 -6 0 -2 9 8 20 9
10 15 26 12 35 -9 22 -27 19 -27 -5 0 -11 -7 -20 -15 -20 -8 0 -15 9 -15 20 0
11 7 20 15 20 8 0 15 9 15 20 0 11 5 20 10 20 6 0 10 -6 10 -14z m750 5 c0 -6
-4 -13 -10 -16 -5 -3 -10 1 -10 9 0 9 5 16 10 16 6 0 10 -4 10 -9z m-1076 -7
c9 -3 16 -15 16 -25 0 -14 -7 -19 -30 -19 -28 0 -30 -2 -30 -39 0 -22 -4 -43
-10 -46 -6 -4 -10 10 -10 34 0 22 5 43 10 46 6 4 7 11 4 17 -4 6 1 17 11 25
22 15 19 15 39 7z m1866 -52 c0 -20 -19 -52 -32 -52 -6 0 -8 12 -4 31 3 18 1
38 -5 45 -6 7 -7 18 -3 25 8 13 43 -26 44 -49z m2026 21 c-7 -17 -8 -17 -17 0
-12 21 -2 44 13 29 6 -6 8 -19 4 -29z m-4593 7 c3 -11 1 -20 -4 -20 -5 0 -9 9
-9 20 0 11 2 20 4 20 2 0 6 -9 9 -20z m1743 6 c3 -8 1 -23 -5 -33 -9 -16 -10
-16 -11 -1 0 9 -3 23 -6 32 -3 9 -1 16 5 16 7 0 14 -6 17 -14z m64 -16 c0 -11
-4 -20 -10 -20 -5 0 -10 9 -10 20 0 11 5 20 10 20 6 0 10 -9 10 -20z m1500 10
c0 -5 -5 -10 -11 -10 -5 0 -7 5 -4 10 3 6 8 10 11 10 2 0 4 -4 4 -10z m367 -5
c-4 -8 -2 -17 3 -20 13 -8 13 -75 1 -75 -6 0 -11 17 -13 38 -3 32 -7 37 -29
40 -23 3 -28 -2 -36 -34 -11 -48 -33 -57 -33 -14 0 44 35 80 79 80 25 0 32 -4
28 -15z m-3584 -7 c6 -19 -4 -49 -15 -46 -5 2 -9 7 -9 11 1 4 1 16 1 27 0 22
16 27 23 8z m1117 -18 c0 -21 -34 -45 -50 -35 -6 4 -2 18 11 36 22 31 39 30
39 -1z m393 6 c17 -26 13 -36 -14 -36 -17 0 -33 36 -23 52 9 14 21 9 37 -16z
m609 -6 c-4 -40 -39 -73 -82 -77 -33 -3 -39 -1 -34 12 5 12 17 15 43 13 29 -2
36 1 39 17 8 51 14 66 25 62 7 -2 11 -14 9 -27z m-1455 4 c3 -8 1 -29 -4 -47
l-10 -32 -4 48 c-4 46 5 63 18 31z m1386 1 c-3 -9 -8 -14 -10 -11 -3 3 -2 9 2
15 9 16 15 13 8 -4z m359 -14 c-2 -16 1 -32 7 -35 14 -9 14 -26 0 -26 -30 0
-53 73 -26 83 22 9 24 7 19 -22z m791 -24 c-3 -5 1 -13 8 -18 11 -6 11 -11 2
-20 -19 -19 -41 -3 -48 35 -10 48 3 65 26 35 9 -13 15 -27 12 -32z m55 21 c-2
-22 -9 -34 -20 -36 -20 -4 -24 19 -8 49 16 30 32 22 28 -13z m1182 17 c0 -8
-2 -15 -4 -15 -2 0 -6 7 -10 15 -3 8 -1 15 4 15 6 0 10 -7 10 -15z m-2570 -30
c0 -20 -5 -25 -26 -25 -14 0 -23 3 -21 8 2 4 7 15 10 25 10 27 37 21 37 -8z
m1167 -19 c11 -34 4 -46 -27 -46 -13 0 -20 30 -14 56 9 35 29 30 41 -10z
m-2417 14 c0 -5 -4 -10 -10 -10 -5 0 -10 5 -10 10 0 6 5 10 10 10 6 0 10 -4
10 -10z m170 -36 c0 -13 -25 -26 -34 -17 -8 9 -8 48 1 57 8 8 33 -22 33 -40z
m890 36 c0 -5 -2 -10 -4 -10 -3 0 -8 5 -11 10 -3 6 -1 10 4 10 6 0 11 -4 11
-10z m964 1 c9 -14 -12 -61 -26 -61 -12 0 -44 40 -36 43 2 1 12 7 23 14 25 15
32 15 39 4z m746 -37 c0 -28 -28 -44 -40 -24 -10 16 18 63 31 54 5 -3 9 -16 9
-30z m-3435 16 c3 -5 2 -10 -4 -10 -5 0 -13 5 -16 10 -3 6 -2 10 4 10 5 0 13
-4 16 -10z m2307 -4 c17 -12 17 -14 0 -29 -15 -14 -21 -15 -36 -4 -11 8 -15
19 -10 30 7 20 23 21 46 3z m1932 -4 c5 -8 -5 -14 -57 -40 -5 -3 -4 5 2 16 14
27 45 40 55 24z m-3984 -22 c0 -5 -4 -10 -10 -10 -5 0 -10 5 -10 10 0 6 5 10
10 10 6 0 10 -4 10 -10z m256 -36 c-7 -27 -26 -24 -26 5 0 21 23 47 28 31 2
-6 1 -22 -2 -36z m174 30 c0 -16 -16 -34 -30 -34 -24 0 -36 20 -19 30 11 7 49
10 49 4z m3675 -3 c7 -12 -29 -33 -39 -24 -3 3 -6 12 -6 20 0 15 36 18 45 4z
m-4068 -23 c-3 -8 -6 -5 -6 6 -1 11 2 17 5 13 3 -3 4 -12 1 -19z m3311 10 c-5
-15 -58 -24 -58 -10 0 15 12 22 38 22 14 0 22 -5 20 -12z m112 -7 c0 -11 -4
-23 -10 -26 -6 -4 -10 5 -10 19 0 14 5 26 10 26 6 0 10 -9 10 -19z m430 -57
c0 -21 -4 -33 -10 -29 -5 3 -10 19 -10 36 0 16 5 29 10 29 6 0 10 -16 10 -36z
m-2830 -29 c0 -13 5 -27 10 -30 6 -4 10 7 10 25 0 25 4 31 18 28 13 -3 16 -12
14 -42 -3 -32 -1 -37 15 -34 14 2 18 12 17 41 0 29 3 37 15 35 10 -2 16 -14
16 -33 0 -20 5 -30 15 -30 10 0 15 10 15 27 0 15 3 28 8 28 4 0 12 0 17 0 6 0
10 -13 10 -30 0 -16 4 -30 9 -30 16 0 31 27 25 45 -5 13 -2 16 12 13 15 -3 19
-11 17 -43 l-3 -40 20 25 c11 14 20 28 20 33 0 17 19 5 22 -15 4 -28 28 -36
28 -10 0 34 11 52 32 52 18 0 20 -4 14 -40 -4 -23 -2 -40 3 -40 16 0 25 23 22
52 -2 22 1 27 13 22 9 -4 16 -18 16 -34 0 -38 16 -46 31 -18 14 27 28 38 49
38 12 -1 11 -3 -2 -11 -20 -11 -25 -49 -7 -49 7 0 17 8 24 17 11 15 13 15 19
-5 10 -31 29 -27 44 7 14 33 40 47 56 31 5 -5 24 -11 40 -11 24 -1 26 -3 9 -6
-13 -2 -23 -11 -23 -19 0 -22 -17 -17 -23 8 -5 18 -8 19 -21 8 -9 -7 -16 -21
-16 -31 0 -18 12 -19 86 -10 7 0 14 10 17 21 8 31 27 24 27 -11 0 -39 24 -34
28 5 2 19 8 26 17 22 8 -3 17 -1 20 4 10 16 43 -7 47 -32 4 -28 38 -38 38 -11
0 11 -5 24 -10 29 -7 7 4 11 31 13 23 1 45 2 48 3 21 2 29 -4 25 -19 -3 -10 2
-27 10 -38 15 -20 15 -20 16 3 0 34 18 62 35 56 10 -4 12 -12 4 -31 -13 -34
-14 -34 34 -30 55 3 70 14 63 42 -6 22 -3 23 72 27 42 3 84 1 91 -3 8 -4 25
-3 37 1 20 8 23 5 29 -30 5 -29 10 -37 21 -33 11 4 13 14 8 36 -4 19 -3 27 4
23 6 -3 13 -2 16 3 5 7 62 8 105 2 2 -1 -4 -12 -13 -26 -20 -30 -20 -35 -1
-35 8 0 21 13 30 30 12 22 21 29 38 26 12 -3 32 -5 45 -5 19 -1 21 -4 12 -20
-13 -24 -13 -51 -1 -51 6 0 18 13 28 30 22 38 33 38 33 0 0 -39 19 -39 26 0 6
25 9 28 25 19 11 -5 19 -19 19 -29 0 -30 18 -24 22 7 4 39 38 45 35 6 -1 -19
3 -28 13 -28 15 0 17 14 8 45 -3 8 -3 12 -1 9 2 -3 16 -4 31 -1 24 5 25 3 14
-10 -20 -25 4 -32 28 -8 11 11 32 20 48 19 27 0 27 -1 5 -11 -14 -7 -23 -20
-23 -35 0 -27 8 -29 26 -6 7 10 16 15 20 11 4 -4 1 -14 -5 -22 -16 -19 3 -30
29 -16 12 6 20 21 20 36 0 28 19 39 54 30 22 -5 24 -10 19 -46 -5 -38 7 -54
22 -30 4 6 11 8 16 5 5 -4 6 6 3 22 -5 26 -3 28 25 30 34 2 34 2 25 -22 -5
-12 -9 -13 -14 -5 -12 20 -28 3 -23 -24 6 -28 43 -43 58 -22 9 11 12 11 23 0
6 -7 12 -19 13 -26 0 -9 2 -9 5 -2 7 18 104 -8 104 -27 0 -12 -18 -11 -99 6
-39 8 -81 15 -94 14 -12 0 -71 5 -132 10 -60 6 -175 12 -255 14 -80 2 -154 8
-165 13 -11 5 -33 9 -50 8 -65 -3 -288 -3 -440 0 -88 2 -179 0 -202 -4 -23 -4
-84 -3 -135 2 -51 5 -106 10 -123 11 -16 1 -35 6 -42 10 -7 4 -27 7 -45 7 -66
-1 -271 13 -288 19 -3 2 -41 2 -85 1 -79 -2 -156 -2 -185 0 -8 1 -35 -1 -60
-4 -69 -9 -147 -9 -159 -2 -6 4 -17 4 -23 -1 -7 -4 -38 -9 -68 -10 -30 -1 -77
-7 -105 -13 -27 -6 -56 -8 -64 -5 -8 3 -18 0 -22 -7 -5 -7 -23 -14 -41 -15
-18 -1 -49 -5 -68 -7 -64 -10 -202 -20 -231 -18 -11 1 -18 14 -21 36 -3 24 0
32 9 29 8 -3 13 3 13 16 0 12 5 21 10 21 14 0 12 -12 -5 -37 -18 -25 -9 -34
22 -22 15 5 21 14 17 24 -3 8 -1 15 5 15 6 0 14 -12 17 -26 5 -18 11 -23 23
-18 9 3 22 7 28 7 7 0 15 9 19 19 7 24 24 23 24 -2 0 -22 1 -23 25 -14 13 5
14 8 3 15 -10 7 -9 9 5 9 9 0 17 -6 17 -12 0 -9 3 -9 9 1 5 8 18 12 30 8 28
-7 71 14 71 35 0 23 -19 33 -26 14 -9 -24 -26 -19 -22 7 2 18 9 22 38 22 19 0
40 3 45 6 26 14 40 4 37 -30 -4 -41 21 -39 26 2 4 33 25 50 65 52 18 2 47 6
65 10 l33 8 -6 -35 c-4 -20 -3 -38 3 -42 5 -3 13 10 16 29 9 48 26 54 26 10 0
-29 3 -36 18 -33 9 2 18 12 18 23 1 11 2 25 3 32 1 13 29 18 104 20 43 2 47 0
47 -22z m2870 5 c-24 -15 -37 -11 -16 5 11 8 22 12 25 9 3 -3 -1 -9 -9 -14z
m-2300 -18 c0 -13 -12 -22 -22 -16 -10 6 -1 24 13 24 5 0 9 -4 9 -8z m2120
-42 c0 -10 -7 -21 -16 -24 -23 -9 -26 -3 -14 28 11 29 30 27 30 -4z m434 15
c-6 -16 -24 -21 -24 -7 0 11 11 22 21 22 5 0 6 -7 3 -15z m-2009 -15 c-12 -13
-22 -17 -28 -11 -13 13 1 31 25 31 21 0 21 -1 3 -20z m-1675 -16 c0 -8 -7 -14
-15 -14 -15 0 -21 21 -9 33 10 9 24 -2 24 -19z m-40 7 c0 -5 -7 -11 -15 -15
-9 -3 -15 0 -15 9 0 8 7 15 15 15 8 0 15 -4 15 -9z m2620 5 c0 -3 -4 -8 -10
-11 -5 -3 -10 -1 -10 4 0 6 5 11 10 11 6 0 10 -2 10 -4z m1038 -16 c-14 -23
-24 -25 -34 -9 -7 12 12 29 34 29 10 0 10 -4 0 -20z m-3703 1 c-14 -12 -75
-22 -75 -12 0 12 19 19 55 20 17 1 25 -3 20 -8z m3645 -13 c0 -7 -5 -20 -10
-28 -8 -12 -11 -13 -22 -2 -11 11 -9 16 6 28 24 17 26 17 26 2z m-4114 -18 c0
-11 -4 -20 -8 -20 -4 0 -8 9 -8 20 0 11 4 20 8 20 4 0 8 -9 8 -20z m3414 1 c0
-5 -7 -14 -15 -21 -13 -10 -15 -9 -15 9 0 12 6 21 15 21 8 0 15 -4 15 -9z m40
-15 c0 -11 -19 -15 -25 -6 -3 5 1 10 9 10 9 0 16 -2 16 -4z m580 -6 c0 -5 -4
-10 -9 -10 -6 0 -13 5 -16 10 -3 6 1 10 9 10 9 0 16 -4 16 -10z m-57 -30 c3
-11 1 -20 -4 -20 -5 0 -9 2 -9 4 0 2 -3 11 -6 20 -3 9 -2 16 4 16 5 0 12 -9
15 -20z m-2543 -56 c0 -9 -5 -14 -12 -12 -18 6 -21 28 -4 28 9 0 16 -7 16 -16z"/>
<path d="M1500 1460 c0 -5 5 -10 10 -10 13 0 13 -37 0 -45 -15 -9 -2 -25 20
-25 16 0 19 5 14 33 -3 17 -7 38 -10 45 -4 14 -34 16 -34 2z"/>
<path d="M1470 1445 c0 -8 2 -15 4 -15 2 0 6 7 10 15 3 8 1 15 -4 15 -6 0 -10
-7 -10 -15z"/>
<path d="M1465 1410 c-4 -6 -3 -16 3 -22 6 -6 12 -6 17 2 4 6 3 16 -3 22 -6 6
-12 6 -17 -2z"/>
<path d="M1140 1430 c0 -5 5 -10 10 -10 6 0 10 5 10 10 0 6 -4 10 -10 10 -5 0
-10 -4 -10 -10z"/>
<path d="M186 1395 c-16 -24 -14 -45 3 -45 5 0 11 8 14 18 2 9 8 25 12 35 11
26 -10 20 -29 -8z"/>
<path d="M782 1408 c-17 -17 -15 -63 3 -78 21 -17 54 -3 61 27 5 20 2 31 -16
45 -26 21 -32 22 -48 6z m38 -33 c0 -8 -7 -15 -15 -15 -9 0 -12 6 -9 15 4 8
10 15 15 15 5 0 9 -7 9 -15z"/>
<path d="M2438 993 c7 -3 16 -2 19 1 4 3 -2 6 -13 5 -11 0 -14 -3 -6 -6z"/>
<path d="M1028 793 c7 -3 16 -2 19 1 4 3 -2 6 -13 5 -11 0 -14 -3 -6 -6z"/>
<path d="M3310 821 c0 -6 5 -13 10 -16 6 -3 10 1 10 9 0 9 -4 16 -10 16 -5 0
-10 -4 -10 -9z"/>
<path d="M2055 840 c-3 -5 -1 -10 4 -10 6 0 11 5 11 10 0 6 -2 10 -4 10 -3 0
-8 -4 -11 -10z"/>
<path d="M1310 205 c0 -17 5 -25 13 -22 6 2 12 12 12 22 0 10 -6 20 -12 23 -8
2 -13 -6 -13 -23z"/>
<path d="M1363 219 c-15 -15 -5 -39 16 -39 11 0 17 9 19 25 2 26 -16 33 -35
14z"/>
<path d="M1080 194 c0 -29 15 -31 29 -5 9 15 7 20 -9 24 -16 4 -20 0 -20 -19z"/>
<path d="M1144 197 c6 -50 46 -69 46 -22 0 16 -6 25 -15 25 -8 0 -15 5 -15 10
0 6 -4 10 -9 10 -5 0 -8 -11 -7 -23z"/>
<path d="M974 185 c-7 -17 4 -37 17 -30 12 8 12 45 -1 45 -6 0 -13 -7 -16 -15z"/>
<path d="M2643 188 c-24 -12 -29 -23 -14 -33 10 -6 41 21 41 36 0 11 1 11 -27
-3z"/>
<path d="M2240 161 c0 -21 5 -31 16 -31 11 0 14 8 12 27 -4 39 -28 42 -28 4z"/>
<path d="M2365 180 c-8 -13 6 -63 15 -53 17 18 20 51 6 56 -9 4 -18 2 -21 -3z"/>
<path d="M2690 163 c1 -25 2 -26 14 -11 7 10 17 14 22 10 4 -4 2 1 -5 11 -19
25 -31 21 -31 -10z"/>
<path d="M3017 183 c-4 -3 -7 -12 -7 -20 0 -15 26 -18 34 -4 7 11 -18 33 -27
24z"/>
<path d="M2750 165 c0 -8 9 -15 20 -15 11 0 20 7 20 15 0 8 -9 15 -20 15 -11
0 -20 -7 -20 -15z"/>
<path d="M2874 163 c-11 -12 -13 -18 -5 -21 13 -4 41 16 41 29 0 14 -17 10
-36 -8z"/>
<path d="M3502 130 c-10 -17 -10 -21 3 -26 22 -9 30 2 19 26 l-9 20 -13 -20z"/>
<path d="M4520 1839 c0 -5 5 -7 10 -4 6 3 10 8 10 11 0 2 -4 4 -10 4 -5 0 -10
-5 -10 -11z"/>
<path d="M4466 1749 c-14 -23 -25 -44 -23 -46 5 -4 67 71 67 81 0 17 -19 1
-44 -35z"/>
<path d="M1273 1702 c-13 -2 -23 -8 -23 -13 0 -11 17 -11 44 0 24 9 9 18 -21
13z"/>
<path d="M1480 1700 l-35 -7 38 -2 c20 0 37 4 37 9 0 6 -1 9 -2 9 -2 -1 -19
-5 -38 -9z"/>
<path d="M1535 1700 c-4 -6 5 -10 19 -10 14 0 26 5 26 10 0 6 -9 10 -19 10
-11 0 -23 -4 -26 -10z"/>
<path d="M713 1693 c-28 -11 -13 -33 22 -33 19 0 49 -8 67 -18 35 -20 148 -30
148 -14 0 5 -19 13 -42 17 -24 5 -52 10 -63 12 -11 2 -29 5 -41 6 -11 1 -28
10 -38 20 -18 17 -30 20 -53 10z"/>
<path d="M4409 1683 c-13 -16 -12 -17 4 -4 16 13 21 21 13 21 -2 0 -10 -8 -17
-17z"/>
<path d="M4682 1673 c5 -25 28 -28 28 -4 0 12 -6 21 -16 21 -9 0 -14 -7 -12
-17z"/>
<path d="M1840 1673 c0 -11 60 -27 68 -18 8 8 -2 14 -36 21 -19 4 -32 2 -32
-3z"/>
<path d="M2989 1676 c-2 -3 -60 -7 -129 -10 -69 -4 -176 -11 -239 -17 -62 -6
-125 -8 -138 -4 -14 3 -30 1 -37 -4 -7 -6 -42 -9 -77 -7 -35 2 -69 0 -75 -5
-6 -5 -26 -4 -45 1 -18 6 -58 10 -88 10 -44 0 -53 -3 -43 -12 16 -16 414 -22
452 -8 78 30 681 30 760 1 33 -13 140 -20 140 -10 0 13 -71 31 -155 40 -44 4
-105 12 -135 17 -39 7 -57 6 -62 -2 -5 -8 -11 -7 -20 2 -11 11 -99 18 -109 8z"/>
<path d="M1920 1661 c0 -17 134 -30 150 -15 2 3 -2 9 -10 14 -19 12 -140 13
-140 1z"/>
<path d="M1008 1633 c7 -3 16 -2 19 1 4 3 -2 6 -13 5 -11 0 -14 -3 -6 -6z"/>
<path d="M3685 1609 c-27 -5 -65 -10 -82 -10 -19 -1 -30 -5 -27 -11 10 -17
194 5 194 23 0 10 -17 10 -85 -2z"/>
<path d="M3530 1600 c0 -5 7 -10 15 -10 8 0 15 5 15 10 0 6 -7 10 -15 10 -8 0
-15 -4 -15 -10z"/>
<path d="M3998 1530 c12 -11 27 -20 35 -20 7 0 22 -7 33 -15 24 -18 34 -19 34
-1 0 24 -50 56 -88 56 l-36 0 22 -20z"/>
<path d="M4216 1408 c-25 -31 -34 -58 -18 -58 7 0 62 74 62 84 0 15 -19 3 -44
-26z"/>
<path d="M4 249 c-3 -6 -1 -16 5 -22 8 -8 11 -5 11 11 0 24 -5 28 -16 11z"/>
<path d="M55 230 c-3 -6 1 -17 9 -26 15 -14 16 -13 16 10 0 26 -13 35 -25 16z"/>
</g>
</svg>
